<svg id="Слой_1" data-name="Слой 1" xmlns="http://www.w3.org/2000/svg" viewBox="0 0 990 6"><rect width="30" height="6"/><rect x="48" width="30" height="6"/><rect x="96" width="30" height="6"/><rect x="144" width="30" height="6"/><rect x="192" width="30" height="6"/><rect x="240" width="30" height="6"/><rect x="288" width="30" height="6"/><rect x="336" width="30" height="6"/><rect x="384" width="30" height="6"/><rect x="432" width="30" height="6"/><rect x="480" width="30" height="6"/><rect x="528" width="30" height="6"/><rect x="576" width="30" height="6"/><rect x="624" width="30" height="6"/><rect x="672" width="30" height="6"/><rect x="720" width="30" height="6"/><rect x="768" width="30" height="6"/><rect x="816" width="30" height="6"/><rect x="864" width="30" height="6"/><rect x="912" width="30" height="6"/><rect x="960" width="30" height="6"/></svg>