<svg id="Слой_1" data-name="Слой 1" xmlns="http://www.w3.org/2000/svg" viewBox="0 0 977 547"><path d="M976.83,115.06h-6l0-30h6Zm.07-48h-6l0-30h6Zm-.07,96h-6l0-30h6Zm0,48h-6l0-30h6Zm0,48h-6l0-30h6Zm0,48h-6l0-30h6Zm0,48h-6l0-30h6Zm0,48h-6l0-30h6Zm0,48h-6l0-30h6Zm0,48h-6l0-30h6Zm0,48h-6l0-30h6ZM977,19.07h-6L971,6H960.06V0H977ZM942.06,6h-30V0h30Zm-48,0h-30V0h30Zm-48,0h-30V0h30Zm-48,0h-30V0h30Zm-48,0h-30V0h30Zm-48,0H672V0h30ZM654,6H624V0h30ZM606,6H576V0h30ZM558,6H528V0h30ZM510,6H480V0h30ZM462,6H432V0h30ZM414,6H384V0h30ZM366,6H336V0h30ZM318,6H288V0h30ZM270,6H240V0h30ZM222,6H192V0h30ZM174,6H144V0h30ZM126,6H96V0h30ZM78,6H48V0H78ZM30,6H0V0H30Z"/></svg>