<svg id="Слой_1" data-name="Слой 1" xmlns="http://www.w3.org/2000/svg" viewBox="0 0 190 39"><defs><style>.cls-1{fill:#2c2c2b;fill-rule:evenodd;}</style></defs><polygon class="cls-1" points="19.67 11.9 19.67 16.44 5.45 22.83 19.67 29.23 19.67 33.77 0 24.61 0 21.06 19.67 11.9"/><path class="cls-1" d="M40.78,32.19a15.18,15.18,0,0,1-6.32,1.52c-5.83,0-10.17-4-10.17-10.73,0-5.57,3.39-10.69,10.17-10.69a14.07,14.07,0,0,1,6.32,1.57v6.28A7,7,0,0,0,36,18.07c-2.81,0-4.26,2.15-4.26,5s1.69,4.82,4.54,4.82a6.68,6.68,0,0,0,4.47-2Z"/><path class="cls-1" d="M59.66,23c0-3.26-1.57-5.49-4.46-5.49S50.73,19.72,50.73,23s1.57,5.53,4.47,5.53,4.46-2.22,4.46-5.53Zm-16.4,0c0-5.61,3.67-10.69,11.94-10.69S67.14,17.37,67.14,23,63.46,33.71,55.2,33.71,43.26,28.68,43.26,23Z"/><path class="cls-1" d="M85.77,23c0-2.89-1.78-4.74-4.34-4.74-3.06,0-4.34,2.39-4.34,4.74s1.28,4.79,4.34,4.79c2.56,0,4.34-1.86,4.34-4.79Zm-.29,10V30.62A8,8,0,0,1,79,33.71c-5.16,0-9.34-4-9.34-10.73,0-5.07,2.69-10.69,9.34-10.69a7.46,7.46,0,0,1,6.24,2.81V2.64h7.23V33Z"/><path class="cls-1" d="M111,20.67a4,4,0,0,0-4.05-4,4,4,0,0,0-4,4Zm6.77,6.23c-2.31,6.81-9,6.81-10.74,6.81C100.85,33.71,96,30,96,23c0-6.31,4.17-10.69,11-10.69,9.5,0,11.16,7.85,11,12.3h-15.2c-.09,2.52,1.4,4.79,4.29,4.79,2,0,3.43-.87,3.8-2.48Z"/><polygon class="cls-1" points="135.91 0 140.25 0 125.17 39 120.83 39 135.91 0"/><path class="cls-1" d="M153,17.08c2.9,0,3.8-1.65,3.8-3.34s-.9-3.3-3.8-3.3h-2v6.64Zm-10.08-13h12c9.67,0,10,7.35,10,8.67a8.49,8.49,0,0,1-6.07,8.66L167,33h-9.79L151,23.44V33h-8.1Z"/><polygon class="cls-1" points="190 23.81 170.33 32.97 170.33 28.43 184.55 22.04 170.33 15.64 170.33 11.1 190 20.26 190 23.81"/></svg>