<svg id="Слой_1" data-name="Слой 1" xmlns="http://www.w3.org/2000/svg" viewBox="0 0 49 49"><defs><style>.cls-1,.cls-3{fill:#2c2b2a;}.cls-2{fill:#f8e91c;}.cls-3{fill-rule:evenodd;}</style></defs><rect class="cls-1" width="49" height="49"/><rect class="cls-2" x="1.42" y="1.42" width="46.17" height="46.17"/><path class="cls-3" d="M3.87,38.26l6,6.13L24,30.08,38.58,44.69l6.11-6L30.26,24.21,33,21.52V15.79l1.74-1.47V18.8L37,20.63l6.7-6.7,2.15,1.66c1.27-4.7-6.08-15.35-12.16-9.45l-7.08,7,1.44,1.74-3.6,3.51L21,15l1.83-1.66-7.77-7.5C9.21,1,3.22,8.35,3,15.5l2.13-1.77,6.52,7L14,18.8V14.49l1.45,1.1v5.63l2.83,2.84Z"/></svg>