<svg id="Слой_1" data-name="Слой 1" xmlns="http://www.w3.org/2000/svg" viewBox="0 0 247 142"><defs><style>.cls-1{fill:#fff;}.cls-2{font-size:30.79px;stroke:#000;stroke-miterlimit:5;stroke-width:0.65px;font-family:OCRF-RegularC;}</style></defs><rect class="cls-1" x="7.86" y="14.88" width="7.01" height="7.01"/><path class="cls-1" d="M15.72,22.75H7V14h8.71ZM8.71,21H14V15.73H8.71Z"/><rect class="cls-1" x="7.86" y="21.9" width="7.01" height="7.01"/><path class="cls-1" d="M15.72,29.76H7V21h8.71Zm-7-1.7H14V22.75H8.71Z"/><rect class="cls-1" x="7.86" y="28.91" width="7.01" height="7.01"/><path class="cls-1" d="M15.72,36.78H7V28.06h8.71Zm-7-1.71H14V29.76H8.71Z"/><rect class="cls-1" x="7.86" y="35.93" width="7.01" height="7.01"/><path class="cls-1" d="M15.72,43.79H7V35.07h8.71Zm-7-1.7H14V36.78H8.71Z"/><rect class="cls-1" x="7.86" y="42.94" width="7.01" height="7.01"/><path class="cls-1" d="M15.72,50.81H7V42.09h8.71Zm-7-1.71H14V43.79H8.71Z"/><rect class="cls-1" x="7.86" y="49.96" width="7.01" height="7.01"/><path class="cls-1" d="M15.72,57.82H7V49.1h8.71Zm-7-1.7H14V50.81H8.71Z"/><rect class="cls-1" x="7.86" y="56.97" width="7.01" height="7.01"/><path class="cls-1" d="M15.72,64.84H7V56.12h8.71Zm-7-1.71H14V57.82H8.71Z"/><rect class="cls-1" x="7.86" y="63.99" width="7.01" height="7.01"/><path class="cls-1" d="M15.72,71.85H7V63.13h8.71Zm-7-1.7H14V64.84H8.71Z"/><rect class="cls-1" x="7.86" y="71" width="7.01" height="7.01"/><path class="cls-1" d="M15.72,78.87H7V70.15h8.71Zm-7-1.71H14V71.85H8.71Z"/><rect class="cls-1" x="7.86" y="78.01" width="7.01" height="7.01"/><path class="cls-1" d="M15.72,85.88H7V77.16h8.71Zm-7-1.7H14V78.87H8.71Z"/><rect class="cls-1" x="14.87" y="7.87" width="7.01" height="7.01"/><path class="cls-1" d="M22.73,15.73H14V7h8.71Zm-7-1.7H21V8.72H15.72Z"/><rect class="cls-1" x="14.87" y="14.88" width="7.01" height="7.01"/><path class="cls-1" d="M22.73,22.75H14V14h8.71Zm-7-1.71H21V15.73H15.72Z"/><rect class="cls-1" x="14.87" y="21.9" width="7.01" height="7.01"/><path class="cls-1" d="M22.73,29.76H14V21h8.71Zm-7-1.7H21V22.75H15.72Z"/><rect class="cls-1" x="14.87" y="28.91" width="7.01" height="7.01"/><path class="cls-1" d="M22.73,36.78H14V28.06h8.71Zm-7-1.71H21V29.76H15.72Z"/><rect class="cls-1" x="14.87" y="35.93" width="7.01" height="7.01"/><path class="cls-1" d="M22.73,43.79H14V35.07h8.71Zm-7-1.7H21V36.78H15.72Z"/><rect class="cls-1" x="14.87" y="42.94" width="7.01" height="7.01"/><path class="cls-1" d="M22.73,50.81H14V42.09h8.71Zm-7-1.71H21V43.79H15.72Z"/><rect class="cls-1" x="14.87" y="49.96" width="7.01" height="7.01"/><path class="cls-1" d="M22.73,57.82H14V49.1h8.71Zm-7-1.7H21V50.81H15.72Z"/><rect class="cls-1" x="14.87" y="56.97" width="7.01" height="7.01"/><path class="cls-1" d="M22.73,64.84H14V56.12h8.71Zm-7-1.71H21V57.82H15.72Z"/><rect class="cls-1" x="14.87" y="63.99" width="7.01" height="7.01"/><path class="cls-1" d="M22.73,71.85H14V63.13h8.71Zm-7-1.7H21V64.84H15.72Z"/><rect class="cls-1" x="14.87" y="71" width="7.01" height="7.01"/><path class="cls-1" d="M22.73,78.87H14V70.15h8.71Zm-7-1.71H21V71.85H15.72Z"/><rect class="cls-1" x="14.87" y="78.01" width="7.01" height="7.01"/><path class="cls-1" d="M22.73,85.88H14V77.16h8.71Zm-7-1.7H21V78.87H15.72Z"/><rect class="cls-1" x="14.87" y="85.03" width="7.01" height="7.01"/><path class="cls-1" d="M22.73,92.9H14V84.18h8.71Zm-7-1.71H21V85.88H15.72Z"/><rect class="cls-1" x="21.88" y="7.87" width="7.01" height="7.01"/><path class="cls-1" d="M29.74,15.73H21V7h8.71Zm-7-1.7H28V8.72h-5.3Z"/><rect class="cls-1" x="21.88" y="14.88" width="7.01" height="7.01"/><path class="cls-1" d="M29.74,22.75H21V14h8.71Zm-7-1.71H28V15.73h-5.3Z"/><rect class="cls-1" x="21.88" y="21.9" width="7.01" height="7.01"/><path class="cls-1" d="M29.74,29.76H21V21h8.71Zm-7-1.7H28V22.75h-5.3Z"/><rect class="cls-1" x="21.88" y="28.91" width="7.01" height="7.01"/><path class="cls-1" d="M29.74,36.78H21V28.06h8.71Zm-7-1.71H28V29.76h-5.3Z"/><rect class="cls-1" x="21.88" y="35.93" width="7.01" height="7.01"/><path class="cls-1" d="M29.74,43.79H21V35.07h8.71Zm-7-1.7H28V36.78h-5.3Z"/><rect class="cls-1" x="21.88" y="42.94" width="7.01" height="7.01"/><path class="cls-1" d="M29.74,50.81H21V42.09h8.71Zm-7-1.71H28V43.79h-5.3Z"/><rect class="cls-1" x="21.88" y="49.96" width="7.01" height="7.01"/><path class="cls-1" d="M29.74,57.82H21V49.1h8.71Zm-7-1.7H28V50.81h-5.3Z"/><rect class="cls-1" x="21.88" y="56.97" width="7.01" height="7.01"/><path class="cls-1" d="M29.74,64.84H21V56.12h8.71Zm-7-1.71H28V57.82h-5.3Z"/><rect class="cls-1" x="21.88" y="63.99" width="7.01" height="7.01"/><path class="cls-1" d="M29.74,71.85H21V63.13h8.71Zm-7-1.7H28V64.84h-5.3Z"/><rect class="cls-1" x="21.88" y="71" width="7.01" height="7.01"/><path class="cls-1" d="M29.74,78.87H21V70.15h8.71Zm-7-1.71H28V71.85h-5.3Z"/><rect class="cls-1" x="21.88" y="78.01" width="7.01" height="7.01"/><path class="cls-1" d="M29.74,85.88H21V77.16h8.71Zm-7-1.7H28V78.87h-5.3Z"/><rect class="cls-1" x="21.88" y="85.03" width="7.01" height="7.01"/><path class="cls-1" d="M29.74,92.9H21V84.18h8.71Zm-7-1.71H28V85.88h-5.3Z"/><rect class="cls-1" x="28.89" y="7.87" width="7.01" height="7.01"/><path class="cls-1" d="M36.75,15.73H28V7h8.72Zm-7-1.7H35V8.72h-5.3Z"/><rect class="cls-1" x="28.89" y="14.88" width="7.01" height="7.01"/><path class="cls-1" d="M36.75,22.75H28V14h8.72Zm-7-1.71H35V15.73h-5.3Z"/><rect class="cls-1" x="28.89" y="21.9" width="7.01" height="7.01"/><path class="cls-1" d="M36.75,29.76H28V21h8.72Zm-7-1.7H35V22.75h-5.3Z"/><rect class="cls-1" x="28.89" y="28.91" width="7.01" height="7.01"/><path class="cls-1" d="M36.75,36.78H28V28.06h8.72Zm-7-1.71H35V29.76h-5.3Z"/><rect class="cls-1" x="28.89" y="35.93" width="7.01" height="7.01"/><path class="cls-1" d="M36.75,43.79H28V35.07h8.72Zm-7-1.7H35V36.78h-5.3Z"/><rect class="cls-1" x="28.89" y="42.94" width="7.01" height="7.01"/><path class="cls-1" d="M36.75,50.81H28V42.09h8.72Zm-7-1.71H35V43.79h-5.3Z"/><rect class="cls-1" x="28.89" y="49.96" width="7.01" height="7.01"/><path class="cls-1" d="M36.75,57.82H28V49.1h8.72Zm-7-1.7H35V50.81h-5.3Z"/><rect class="cls-1" x="28.89" y="56.97" width="7.01" height="7.01"/><path class="cls-1" d="M36.75,64.84H28V56.12h8.72Zm-7-1.71H35V57.82h-5.3Z"/><rect class="cls-1" x="28.89" y="63.99" width="7.01" height="7.01"/><path class="cls-1" d="M36.75,71.85H28V63.13h8.72Zm-7-1.7H35V64.84h-5.3Z"/><rect class="cls-1" x="28.89" y="71" width="7.01" height="7.01"/><path class="cls-1" d="M36.75,78.87H28V70.15h8.72Zm-7-1.71H35V71.85h-5.3Z"/><rect class="cls-1" x="28.89" y="78.01" width="7.01" height="7.01"/><path class="cls-1" d="M36.75,85.88H28V77.16h8.72Zm-7-1.7H35V78.87h-5.3Z"/><rect class="cls-1" x="28.89" y="85.03" width="7.01" height="7.01"/><path class="cls-1" d="M36.75,92.9H28V84.18h8.72Zm-7-1.71H35V85.88h-5.3Z"/><rect class="cls-1" x="35.89" y="7.87" width="7.01" height="7.01"/><path class="cls-1" d="M43.75,15.73H35V7h8.71Zm-7-1.7h5.3V8.72h-5.3Z"/><rect class="cls-1" x="35.89" y="14.88" width="7.01" height="7.01"/><path class="cls-1" d="M43.75,22.75H35V14h8.71Zm-7-1.71h5.3V15.73h-5.3Z"/><rect class="cls-1" x="35.89" y="21.9" width="7.01" height="7.01"/><path class="cls-1" d="M43.75,29.76H35V21h8.71Zm-7-1.7h5.3V22.75h-5.3Z"/><rect class="cls-1" x="35.89" y="28.91" width="7.01" height="7.01"/><path class="cls-1" d="M43.75,36.78H35V28.06h8.71Zm-7-1.71h5.3V29.76h-5.3Z"/><rect class="cls-1" x="35.89" y="35.93" width="7.01" height="7.01"/><path class="cls-1" d="M43.75,43.79H35V35.07h8.71Zm-7-1.7h5.3V36.78h-5.3Z"/><rect class="cls-1" x="35.89" y="42.94" width="7.01" height="7.01"/><path class="cls-1" d="M43.75,50.81H35V42.09h8.71Zm-7-1.71h5.3V43.79h-5.3Z"/><rect class="cls-1" x="35.89" y="49.96" width="7.01" height="7.01"/><path class="cls-1" d="M43.75,57.82H35V49.1h8.71Zm-7-1.7h5.3V50.81h-5.3Z"/><rect class="cls-1" x="35.89" y="56.97" width="7.01" height="7.01"/><path class="cls-1" d="M43.75,64.84H35V56.12h8.71Zm-7-1.71h5.3V57.82h-5.3Z"/><rect class="cls-1" x="35.89" y="63.99" width="7.01" height="7.01"/><path class="cls-1" d="M43.75,71.85H35V63.13h8.71Zm-7-1.7h5.3V64.84h-5.3Z"/><rect class="cls-1" x="35.89" y="71" width="7.01" height="7.01"/><path class="cls-1" d="M43.75,78.87H35V70.15h8.71Zm-7-1.71h5.3V71.85h-5.3Z"/><rect class="cls-1" x="35.89" y="78.01" width="7.01" height="7.01"/><path class="cls-1" d="M43.75,85.88H35V77.16h8.71Zm-7-1.7h5.3V78.87h-5.3Z"/><rect class="cls-1" x="35.89" y="85.03" width="7.01" height="7.01"/><path class="cls-1" d="M43.75,92.9H35V84.18h8.71Zm-7-1.71h5.3V85.88h-5.3Z"/><rect class="cls-1" x="42.9" y="7.87" width="7.01" height="7.01"/><path class="cls-1" d="M50.76,15.73H42.05V7h8.71Zm-7-1.7h5.31V8.72H43.75Z"/><rect class="cls-1" x="42.9" y="14.88" width="7.01" height="7.01"/><path class="cls-1" d="M50.76,22.75H42.05V14h8.71Zm-7-1.71h5.31V15.73H43.75Z"/><rect class="cls-1" x="42.9" y="21.9" width="7.01" height="7.01"/><path class="cls-1" d="M50.76,29.76H42.05V21h8.71Zm-7-1.7h5.31V22.75H43.75Z"/><rect class="cls-1" x="42.9" y="28.91" width="7.01" height="7.01"/><path class="cls-1" d="M50.76,36.78H42.05V28.06h8.71Zm-7-1.71h5.31V29.76H43.75Z"/><rect class="cls-1" x="42.9" y="35.93" width="7.01" height="7.01"/><path class="cls-1" d="M50.76,43.79H42.05V35.07h8.71Zm-7-1.7h5.31V36.78H43.75Z"/><rect class="cls-1" x="42.9" y="42.94" width="7.01" height="7.01"/><path class="cls-1" d="M50.76,50.81H42.05V42.09h8.71Zm-7-1.71h5.31V43.79H43.75Z"/><rect class="cls-1" x="42.9" y="49.96" width="7.01" height="7.01"/><path class="cls-1" d="M50.76,57.82H42.05V49.1h8.71Zm-7-1.7h5.31V50.81H43.75Z"/><rect class="cls-1" x="42.9" y="56.97" width="7.01" height="7.01"/><path class="cls-1" d="M50.76,64.84H42.05V56.12h8.71Zm-7-1.71h5.31V57.82H43.75Z"/><rect class="cls-1" x="42.9" y="63.99" width="7.01" height="7.01"/><path class="cls-1" d="M50.76,71.85H42.05V63.13h8.71Zm-7-1.7h5.31V64.84H43.75Z"/><rect class="cls-1" x="42.9" y="71" width="7.01" height="7.01"/><path class="cls-1" d="M50.76,78.87H42.05V70.15h8.71Zm-7-1.71h5.31V71.85H43.75Z"/><rect class="cls-1" x="42.9" y="78.01" width="7.01" height="7.01"/><path class="cls-1" d="M50.76,85.88H42.05V77.16h8.71Zm-7-1.7h5.31V78.87H43.75Z"/><rect class="cls-1" x="42.9" y="85.03" width="7.01" height="7.01"/><path class="cls-1" d="M50.76,92.9H42.05V84.18h8.71Zm-7-1.71h5.31V85.88H43.75Z"/><rect class="cls-1" x="49.91" y="7.87" width="7.01" height="7.01"/><path class="cls-1" d="M57.77,15.73H49.06V7h8.71Zm-7-1.7h5.31V8.72H50.76Z"/><rect class="cls-1" x="49.91" y="14.88" width="7.01" height="7.01"/><path class="cls-1" d="M57.77,22.75H49.06V14h8.71Zm-7-1.71h5.31V15.73H50.76Z"/><rect class="cls-1" x="49.91" y="21.9" width="7.01" height="7.01"/><path class="cls-1" d="M57.77,29.76H49.06V21h8.71Zm-7-1.7h5.31V22.75H50.76Z"/><rect class="cls-1" x="49.91" y="28.91" width="7.01" height="7.01"/><path class="cls-1" d="M57.77,36.78H49.06V28.06h8.71Zm-7-1.71h5.31V29.76H50.76Z"/><rect class="cls-1" x="49.91" y="35.93" width="7.01" height="7.01"/><path class="cls-1" d="M57.77,43.79H49.06V35.07h8.71Zm-7-1.7h5.31V36.78H50.76Z"/><rect class="cls-1" x="49.91" y="42.94" width="7.01" height="7.01"/><path class="cls-1" d="M57.77,50.81H49.06V42.09h8.71Zm-7-1.71h5.31V43.79H50.76Z"/><rect class="cls-1" x="49.91" y="49.96" width="7.01" height="7.01"/><path class="cls-1" d="M57.77,57.82H49.06V49.1h8.71Zm-7-1.7h5.31V50.81H50.76Z"/><rect class="cls-1" x="49.91" y="56.97" width="7.01" height="7.01"/><path class="cls-1" d="M57.77,64.84H49.06V56.12h8.71Zm-7-1.71h5.31V57.82H50.76Z"/><rect class="cls-1" x="49.91" y="63.99" width="7.01" height="7.01"/><path class="cls-1" d="M57.77,71.85H49.06V63.13h8.71Zm-7-1.7h5.31V64.84H50.76Z"/><rect class="cls-1" x="49.91" y="71" width="7.01" height="7.01"/><path class="cls-1" d="M57.77,78.87H49.06V70.15h8.71Zm-7-1.71h5.31V71.85H50.76Z"/><rect class="cls-1" x="49.91" y="78.01" width="7.01" height="7.01"/><path class="cls-1" d="M57.77,85.88H49.06V77.16h8.71Zm-7-1.7h5.31V78.87H50.76Z"/><rect class="cls-1" x="49.91" y="85.03" width="7.01" height="7.01"/><path class="cls-1" d="M57.77,92.9H49.06V84.18h8.71Zm-7-1.71h5.31V85.88H50.76Z"/><rect class="cls-1" x="56.92" y="7.87" width="7.01" height="7.01"/><path class="cls-1" d="M64.78,15.73H56.07V7h8.71Zm-7-1.7h5.31V8.72H57.77Z"/><rect class="cls-1" x="56.92" y="14.88" width="7.01" height="7.01"/><path class="cls-1" d="M64.78,22.75H56.07V14h8.71Zm-7-1.71h5.31V15.73H57.77Z"/><rect class="cls-1" x="56.92" y="21.9" width="7.01" height="7.01"/><path class="cls-1" d="M64.78,29.76H56.07V21h8.71Zm-7-1.7h5.31V22.75H57.77Z"/><rect class="cls-1" x="56.92" y="28.91" width="7.01" height="7.01"/><path class="cls-1" d="M64.78,36.78H56.07V28.06h8.71Zm-7-1.71h5.31V29.76H57.77Z"/><rect class="cls-1" x="56.92" y="35.93" width="7.01" height="7.01"/><path class="cls-1" d="M64.78,43.79H56.07V35.07h8.71Zm-7-1.7h5.31V36.78H57.77Z"/><rect class="cls-1" x="56.92" y="42.94" width="7.01" height="7.01"/><path class="cls-1" d="M64.78,50.81H56.07V42.09h8.71Zm-7-1.71h5.31V43.79H57.77Z"/><rect class="cls-1" x="56.92" y="49.96" width="7.01" height="7.01"/><path class="cls-1" d="M64.78,57.82H56.07V49.1h8.71Zm-7-1.7h5.31V50.81H57.77Z"/><rect class="cls-1" x="56.92" y="56.97" width="7.01" height="7.01"/><path class="cls-1" d="M64.78,64.84H56.07V56.12h8.71Zm-7-1.71h5.31V57.82H57.77Z"/><rect class="cls-1" x="56.92" y="63.99" width="7.01" height="7.01"/><path class="cls-1" d="M64.78,71.85H56.07V63.13h8.71Zm-7-1.7h5.31V64.84H57.77Z"/><rect class="cls-1" x="56.92" y="71" width="7.01" height="7.01"/><path class="cls-1" d="M64.78,78.87H56.07V70.15h8.71Zm-7-1.71h5.31V71.85H57.77Z"/><rect class="cls-1" x="56.92" y="78.01" width="7.01" height="7.01"/><path class="cls-1" d="M64.78,85.88H56.07V77.16h8.71Zm-7-1.7h5.31V78.87H57.77Z"/><rect class="cls-1" x="56.92" y="85.03" width="7.01" height="7.01"/><path class="cls-1" d="M64.78,92.9H56.07V84.18h8.71Zm-7-1.71h5.31V85.88H57.77Z"/><rect class="cls-1" x="63.93" y="7.87" width="7.01" height="7.01"/><path class="cls-1" d="M71.79,15.73H63.08V7h8.71Zm-7-1.7h5.3V8.72h-5.3Z"/><rect class="cls-1" x="63.93" y="14.88" width="7.01" height="7.01"/><path class="cls-1" d="M71.79,22.75H63.08V14h8.71Zm-7-1.71h5.3V15.73h-5.3Z"/><rect class="cls-1" x="63.93" y="21.9" width="7.01" height="7.01"/><path class="cls-1" d="M71.79,29.76H63.08V21h8.71Zm-7-1.7h5.3V22.75h-5.3Z"/><rect class="cls-1" x="63.93" y="28.91" width="7.01" height="7.01"/><path class="cls-1" d="M71.79,36.78H63.08V28.06h8.71Zm-7-1.71h5.3V29.76h-5.3Z"/><rect class="cls-1" x="63.93" y="35.93" width="7.01" height="7.01"/><path class="cls-1" d="M71.79,43.79H63.08V35.07h8.71Zm-7-1.7h5.3V36.78h-5.3Z"/><rect class="cls-1" x="63.93" y="42.94" width="7.01" height="7.01"/><path class="cls-1" d="M71.79,50.81H63.08V42.09h8.71Zm-7-1.71h5.3V43.79h-5.3Z"/><rect class="cls-1" x="63.93" y="49.96" width="7.01" height="7.01"/><path class="cls-1" d="M71.79,57.82H63.08V49.1h8.71Zm-7-1.7h5.3V50.81h-5.3Z"/><rect class="cls-1" x="63.93" y="56.97" width="7.01" height="7.01"/><path class="cls-1" d="M71.79,64.84H63.08V56.12h8.71Zm-7-1.71h5.3V57.82h-5.3Z"/><rect class="cls-1" x="63.93" y="63.99" width="7.01" height="7.01"/><path class="cls-1" d="M71.79,71.85H63.08V63.13h8.71Zm-7-1.7h5.3V64.84h-5.3Z"/><rect class="cls-1" x="63.93" y="71" width="7.01" height="7.01"/><path class="cls-1" d="M71.79,78.87H63.08V70.15h8.71Zm-7-1.71h5.3V71.85h-5.3Z"/><rect class="cls-1" x="63.93" y="78.01" width="7.01" height="7.01"/><path class="cls-1" d="M71.79,85.88H63.08V77.16h8.71Zm-7-1.7h5.3V78.87h-5.3Z"/><rect class="cls-1" x="63.93" y="85.03" width="7.01" height="7.01"/><path class="cls-1" d="M71.79,92.9H63.08V84.18h8.71Zm-7-1.71h5.3V85.88h-5.3Z"/><rect class="cls-1" x="70.94" y="7.87" width="7.01" height="7.01"/><path class="cls-1" d="M78.8,15.73H70.08V7H78.8Zm-7-1.7h5.3V8.72h-5.3Z"/><rect class="cls-1" x="70.94" y="14.88" width="7.01" height="7.01"/><path class="cls-1" d="M78.8,22.75H70.08V14H78.8Zm-7-1.71h5.3V15.73h-5.3Z"/><rect class="cls-1" x="70.94" y="21.9" width="7.01" height="7.01"/><path class="cls-1" d="M78.8,29.76H70.08V21H78.8Zm-7-1.7h5.3V22.75h-5.3Z"/><rect class="cls-1" x="70.94" y="28.91" width="7.01" height="7.01"/><path class="cls-1" d="M78.8,36.78H70.08V28.06H78.8Zm-7-1.71h5.3V29.76h-5.3Z"/><rect class="cls-1" x="70.94" y="35.93" width="7.01" height="7.01"/><path class="cls-1" d="M78.8,43.79H70.08V35.07H78.8Zm-7-1.7h5.3V36.78h-5.3Z"/><rect class="cls-1" x="70.94" y="42.94" width="7.01" height="7.01"/><path class="cls-1" d="M78.8,50.81H70.08V42.09H78.8Zm-7-1.71h5.3V43.79h-5.3Z"/><rect class="cls-1" x="70.94" y="49.96" width="7.01" height="7.01"/><path class="cls-1" d="M78.8,57.82H70.08V49.1H78.8Zm-7-1.7h5.3V50.81h-5.3Z"/><rect class="cls-1" x="70.94" y="56.97" width="7.01" height="7.01"/><path class="cls-1" d="M78.8,64.84H70.08V56.12H78.8Zm-7-1.71h5.3V57.82h-5.3Z"/><rect class="cls-1" x="70.94" y="63.99" width="7.01" height="7.01"/><path class="cls-1" d="M78.8,71.85H70.08V63.13H78.8Zm-7-1.7h5.3V64.84h-5.3Z"/><rect class="cls-1" x="70.94" y="71" width="7.01" height="7.01"/><path class="cls-1" d="M78.8,78.87H70.08V70.15H78.8Zm-7-1.71h5.3V71.85h-5.3Z"/><rect class="cls-1" x="70.94" y="78.01" width="7.01" height="7.01"/><path class="cls-1" d="M78.8,85.88H70.08V77.16H78.8Zm-7-1.7h5.3V78.87h-5.3Z"/><rect class="cls-1" x="70.94" y="85.03" width="7.01" height="7.01"/><path class="cls-1" d="M78.8,92.9H70.08V84.18H78.8Zm-7-1.71h5.3V85.88h-5.3Z"/><rect class="cls-1" x="77.95" y="7.87" width="7.01" height="7.01"/><path class="cls-1" d="M85.81,15.73H77.09V7h8.72Zm-7-1.7h5.3V8.72H78.8Z"/><rect class="cls-1" x="77.95" y="14.88" width="7.01" height="7.01"/><path class="cls-1" d="M85.81,22.75H77.09V14h8.72ZM78.8,21h5.3V15.73H78.8Z"/><rect class="cls-1" x="77.95" y="21.9" width="7.01" height="7.01"/><path class="cls-1" d="M85.81,29.76H77.09V21h8.72Zm-7-1.7h5.3V22.75H78.8Z"/><rect class="cls-1" x="77.95" y="28.91" width="7.01" height="7.01"/><path class="cls-1" d="M85.81,36.78H77.09V28.06h8.72Zm-7-1.71h5.3V29.76H78.8Z"/><rect class="cls-1" x="77.95" y="35.93" width="7.01" height="7.01"/><path class="cls-1" d="M85.81,43.79H77.09V35.07h8.72Zm-7-1.7h5.3V36.78H78.8Z"/><rect class="cls-1" x="77.95" y="42.94" width="7.01" height="7.01"/><path class="cls-1" d="M85.81,50.81H77.09V42.09h8.72Zm-7-1.71h5.3V43.79H78.8Z"/><rect class="cls-1" x="77.95" y="49.96" width="7.01" height="7.01"/><path class="cls-1" d="M85.81,57.82H77.09V49.1h8.72Zm-7-1.7h5.3V50.81H78.8Z"/><rect class="cls-1" x="77.95" y="56.97" width="7.01" height="7.01"/><path class="cls-1" d="M85.81,64.84H77.09V56.12h8.72Zm-7-1.71h5.3V57.82H78.8Z"/><rect class="cls-1" x="77.95" y="63.99" width="7.01" height="7.01"/><path class="cls-1" d="M85.81,71.85H77.09V63.13h8.72Zm-7-1.7h5.3V64.84H78.8Z"/><rect class="cls-1" x="77.95" y="71" width="7.01" height="7.01"/><path class="cls-1" d="M85.81,78.87H77.09V70.15h8.72Zm-7-1.71h5.3V71.85H78.8Z"/><rect class="cls-1" x="77.95" y="78.01" width="7.01" height="7.01"/><path class="cls-1" d="M85.81,85.88H77.09V77.16h8.72Zm-7-1.7h5.3V78.87H78.8Z"/><rect class="cls-1" x="77.95" y="85.03" width="7.01" height="7.01"/><path class="cls-1" d="M85.81,92.9H77.09V84.18h8.72Zm-7-1.71h5.3V85.88H78.8Z"/><rect class="cls-1" x="84.95" y="7.87" width="7.01" height="7.01"/><path class="cls-1" d="M92.81,15.73H84.1V7h8.71Zm-7-1.7h5.3V8.72h-5.3Z"/><rect class="cls-1" x="84.95" y="14.88" width="7.01" height="7.01"/><path class="cls-1" d="M92.81,22.75H84.1V14h8.71Zm-7-1.71h5.3V15.73h-5.3Z"/><rect class="cls-1" x="84.95" y="21.9" width="7.01" height="7.01"/><path class="cls-1" d="M92.81,29.76H84.1V21h8.71Zm-7-1.7h5.3V22.75h-5.3Z"/><rect class="cls-1" x="84.95" y="28.91" width="7.01" height="7.01"/><path class="cls-1" d="M92.81,36.78H84.1V28.06h8.71Zm-7-1.71h5.3V29.76h-5.3Z"/><rect class="cls-1" x="84.95" y="35.93" width="7.01" height="7.01"/><path class="cls-1" d="M92.81,43.79H84.1V35.07h8.71Zm-7-1.7h5.3V36.78h-5.3Z"/><rect class="cls-1" x="84.95" y="42.94" width="7.01" height="7.01"/><path class="cls-1" d="M92.81,50.81H84.1V42.09h8.71Zm-7-1.71h5.3V43.79h-5.3Z"/><rect class="cls-1" x="84.95" y="49.96" width="7.01" height="7.01"/><path class="cls-1" d="M92.81,57.82H84.1V49.1h8.71Zm-7-1.7h5.3V50.81h-5.3Z"/><rect class="cls-1" x="84.95" y="56.97" width="7.01" height="7.01"/><path class="cls-1" d="M92.81,64.84H84.1V56.12h8.71Zm-7-1.71h5.3V57.82h-5.3Z"/><rect class="cls-1" x="84.95" y="63.99" width="7.01" height="7.01"/><path class="cls-1" d="M92.81,71.85H84.1V63.13h8.71Zm-7-1.7h5.3V64.84h-5.3Z"/><rect class="cls-1" x="84.95" y="71" width="7.01" height="7.01"/><path class="cls-1" d="M92.81,78.87H84.1V70.15h8.71Zm-7-1.71h5.3V71.85h-5.3Z"/><rect class="cls-1" x="84.95" y="78.01" width="7.01" height="7.01"/><path class="cls-1" d="M92.81,85.88H84.1V77.16h8.71Zm-7-1.7h5.3V78.87h-5.3Z"/><rect class="cls-1" x="84.95" y="85.03" width="7.01" height="7.01"/><path class="cls-1" d="M92.81,92.9H84.1V84.18h8.71Zm-7-1.71h5.3V85.88h-5.3Z"/><rect class="cls-1" x="91.96" y="7.87" width="7.01" height="7.01"/><path class="cls-1" d="M99.82,15.73H91.11V7h8.71Zm-7-1.7h5.31V8.72H92.81Z"/><rect class="cls-1" x="91.96" y="14.88" width="7.01" height="7.01"/><path class="cls-1" d="M99.82,22.75H91.11V14h8.71Zm-7-1.71h5.31V15.73H92.81Z"/><rect class="cls-1" x="91.96" y="21.9" width="7.01" height="7.01"/><path class="cls-1" d="M99.82,29.76H91.11V21h8.71Zm-7-1.7h5.31V22.75H92.81Z"/><rect class="cls-1" x="91.96" y="28.91" width="7.01" height="7.01"/><path class="cls-1" d="M99.82,36.78H91.11V28.06h8.71Zm-7-1.71h5.31V29.76H92.81Z"/><rect class="cls-1" x="91.96" y="35.93" width="7.01" height="7.01"/><path class="cls-1" d="M99.82,43.79H91.11V35.07h8.71Zm-7-1.7h5.31V36.78H92.81Z"/><rect class="cls-1" x="91.96" y="42.94" width="7.01" height="7.01"/><path class="cls-1" d="M99.82,50.81H91.11V42.09h8.71Zm-7-1.71h5.31V43.79H92.81Z"/><rect class="cls-1" x="91.96" y="49.96" width="7.01" height="7.01"/><path class="cls-1" d="M99.82,57.82H91.11V49.1h8.71Zm-7-1.7h5.31V50.81H92.81Z"/><rect class="cls-1" x="91.96" y="56.97" width="7.01" height="7.01"/><path class="cls-1" d="M99.82,64.84H91.11V56.12h8.71Zm-7-1.71h5.31V57.82H92.81Z"/><rect class="cls-1" x="91.96" y="63.99" width="7.01" height="7.01"/><path class="cls-1" d="M99.82,71.85H91.11V63.13h8.71Zm-7-1.7h5.31V64.84H92.81Z"/><rect class="cls-1" x="91.96" y="71" width="7.01" height="7.01"/><path class="cls-1" d="M99.82,78.87H91.11V70.15h8.71Zm-7-1.71h5.31V71.85H92.81Z"/><rect class="cls-1" x="91.96" y="78.01" width="7.01" height="7.01"/><path class="cls-1" d="M99.82,85.88H91.11V77.16h8.71Zm-7-1.7h5.31V78.87H92.81Z"/><rect class="cls-1" x="91.96" y="85.03" width="7.01" height="7.01"/><path class="cls-1" d="M99.82,92.9H91.11V84.18h8.71Zm-7-1.71h5.31V85.88H92.81Z"/><rect class="cls-1" x="98.97" y="7.87" width="7.01" height="7.01"/><path class="cls-1" d="M106.83,15.73H98.12V7h8.71Zm-7-1.7h5.31V8.72H99.82Z"/><rect class="cls-1" x="98.97" y="14.88" width="7.01" height="7.01"/><path class="cls-1" d="M106.83,22.75H98.12V14h8.71Zm-7-1.71h5.31V15.73H99.82Z"/><rect class="cls-1" x="98.97" y="21.9" width="7.01" height="7.01"/><path class="cls-1" d="M106.83,29.76H98.12V21h8.71Zm-7-1.7h5.31V22.75H99.82Z"/><rect class="cls-1" x="98.97" y="28.91" width="7.01" height="7.01"/><path class="cls-1" d="M106.83,36.78H98.12V28.06h8.71Zm-7-1.71h5.31V29.76H99.82Z"/><rect class="cls-1" x="98.97" y="35.93" width="7.01" height="7.01"/><path class="cls-1" d="M106.83,43.79H98.12V35.07h8.71Zm-7-1.7h5.31V36.78H99.82Z"/><rect class="cls-1" x="98.97" y="42.94" width="7.01" height="7.01"/><path class="cls-1" d="M106.83,50.81H98.12V42.09h8.71Zm-7-1.71h5.31V43.79H99.82Z"/><rect class="cls-1" x="98.97" y="49.96" width="7.01" height="7.01"/><path class="cls-1" d="M106.83,57.82H98.12V49.1h8.71Zm-7-1.7h5.31V50.81H99.82Z"/><rect class="cls-1" x="98.97" y="56.97" width="7.01" height="7.01"/><path class="cls-1" d="M106.83,64.84H98.12V56.12h8.71Zm-7-1.71h5.31V57.82H99.82Z"/><rect class="cls-1" x="98.97" y="63.99" width="7.01" height="7.01"/><path class="cls-1" d="M106.83,71.85H98.12V63.13h8.71Zm-7-1.7h5.31V64.84H99.82Z"/><rect class="cls-1" x="98.97" y="71" width="7.01" height="7.01"/><path class="cls-1" d="M106.83,78.87H98.12V70.15h8.71Zm-7-1.71h5.31V71.85H99.82Z"/><rect class="cls-1" x="98.97" y="78.01" width="7.01" height="7.01"/><path class="cls-1" d="M106.83,85.88H98.12V77.16h8.71Zm-7-1.7h5.31V78.87H99.82Z"/><rect class="cls-1" x="98.97" y="85.03" width="7.01" height="7.01"/><path class="cls-1" d="M106.83,92.9H98.12V84.18h8.71Zm-7-1.71h5.31V85.88H99.82Z"/><rect class="cls-1" x="105.98" y="7.87" width="7.01" height="7.01"/><path class="cls-1" d="M113.84,15.73h-8.71V7h8.71Zm-7-1.7h5.31V8.72h-5.31Z"/><rect class="cls-1" x="105.98" y="14.88" width="7.01" height="7.01"/><path class="cls-1" d="M113.84,22.75h-8.71V14h8.71Zm-7-1.71h5.31V15.73h-5.31Z"/><rect class="cls-1" x="105.98" y="21.9" width="7.01" height="7.01"/><path class="cls-1" d="M113.84,29.76h-8.71V21h8.71Zm-7-1.7h5.31V22.75h-5.31Z"/><rect class="cls-1" x="105.98" y="28.91" width="7.01" height="7.01"/><path class="cls-1" d="M113.84,36.78h-8.71V28.06h8.71Zm-7-1.71h5.31V29.76h-5.31Z"/><rect class="cls-1" x="105.98" y="35.93" width="7.01" height="7.01"/><path class="cls-1" d="M113.84,43.79h-8.71V35.07h8.71Zm-7-1.7h5.31V36.78h-5.31Z"/><rect class="cls-1" x="105.98" y="42.94" width="7.01" height="7.01"/><path class="cls-1" d="M113.84,50.81h-8.71V42.09h8.71Zm-7-1.71h5.31V43.79h-5.31Z"/><rect class="cls-1" x="105.98" y="49.96" width="7.01" height="7.01"/><path class="cls-1" d="M113.84,57.82h-8.71V49.1h8.71Zm-7-1.7h5.31V50.81h-5.31Z"/><rect class="cls-1" x="105.98" y="56.97" width="7.01" height="7.01"/><path class="cls-1" d="M113.84,64.84h-8.71V56.12h8.71Zm-7-1.71h5.31V57.82h-5.31Z"/><rect class="cls-1" x="105.98" y="63.99" width="7.01" height="7.01"/><path class="cls-1" d="M113.84,71.85h-8.71V63.13h8.71Zm-7-1.7h5.31V64.84h-5.31Z"/><rect class="cls-1" x="105.98" y="71" width="7.01" height="7.01"/><path class="cls-1" d="M113.84,78.87h-8.71V70.15h8.71Zm-7-1.71h5.31V71.85h-5.31Z"/><rect class="cls-1" x="105.98" y="78.01" width="7.01" height="7.01"/><path class="cls-1" d="M113.84,85.88h-8.71V77.16h8.71Zm-7-1.7h5.31V78.87h-5.31Z"/><rect class="cls-1" x="105.98" y="85.03" width="7.01" height="7.01"/><path class="cls-1" d="M113.84,92.9h-8.71V84.18h8.71Zm-7-1.71h5.31V85.88h-5.31Z"/><rect class="cls-1" x="112.99" y="7.87" width="7.01" height="7.01"/><path class="cls-1" d="M120.85,15.73h-8.71V7h8.71Zm-7-1.7h5.3V8.72h-5.3Z"/><rect class="cls-1" x="112.99" y="14.88" width="7.01" height="7.01"/><path class="cls-1" d="M120.85,22.75h-8.71V14h8.71Zm-7-1.71h5.3V15.73h-5.3Z"/><rect class="cls-1" x="112.99" y="21.9" width="7.01" height="7.01"/><path class="cls-1" d="M120.85,29.76h-8.71V21h8.71Zm-7-1.7h5.3V22.75h-5.3Z"/><rect class="cls-1" x="112.99" y="28.91" width="7.01" height="7.01"/><path class="cls-1" d="M120.85,36.78h-8.71V28.06h8.71Zm-7-1.71h5.3V29.76h-5.3Z"/><rect class="cls-1" x="112.99" y="35.93" width="7.01" height="7.01"/><path class="cls-1" d="M120.85,43.79h-8.71V35.07h8.71Zm-7-1.7h5.3V36.78h-5.3Z"/><rect class="cls-1" x="112.99" y="42.94" width="7.01" height="7.01"/><path class="cls-1" d="M120.85,50.81h-8.71V42.09h8.71Zm-7-1.71h5.3V43.79h-5.3Z"/><rect class="cls-1" x="112.99" y="49.96" width="7.01" height="7.01"/><path class="cls-1" d="M120.85,57.82h-8.71V49.1h8.71Zm-7-1.7h5.3V50.81h-5.3Z"/><rect class="cls-1" x="112.99" y="56.97" width="7.01" height="7.01"/><path class="cls-1" d="M120.85,64.84h-8.71V56.12h8.71Zm-7-1.71h5.3V57.82h-5.3Z"/><rect class="cls-1" x="112.99" y="63.99" width="7.01" height="7.01"/><path class="cls-1" d="M120.85,71.85h-8.71V63.13h8.71Zm-7-1.7h5.3V64.84h-5.3Z"/><rect class="cls-1" x="112.99" y="71" width="7.01" height="7.01"/><path class="cls-1" d="M120.85,78.87h-8.71V70.15h8.71Zm-7-1.71h5.3V71.85h-5.3Z"/><rect class="cls-1" x="112.99" y="78.01" width="7.01" height="7.01"/><path class="cls-1" d="M120.85,85.88h-8.71V77.16h8.71Zm-7-1.7h5.3V78.87h-5.3Z"/><rect class="cls-1" x="112.99" y="85.03" width="7.01" height="7.01"/><path class="cls-1" d="M120.85,92.9h-8.71V84.18h8.71Zm-7-1.71h5.3V85.88h-5.3Z"/><rect class="cls-1" x="120" y="7.87" width="7.01" height="7.01"/><path class="cls-1" d="M127.86,15.73h-8.72V7h8.72Zm-7-1.7h5.3V8.72h-5.3Z"/><rect class="cls-1" x="120" y="14.88" width="7.01" height="7.01"/><path class="cls-1" d="M127.86,22.75h-8.72V14h8.72Zm-7-1.71h5.3V15.73h-5.3Z"/><rect class="cls-1" x="120" y="21.9" width="7.01" height="7.01"/><path class="cls-1" d="M127.86,29.76h-8.72V21h8.72Zm-7-1.7h5.3V22.75h-5.3Z"/><rect class="cls-1" x="120" y="28.91" width="7.01" height="7.01"/><path class="cls-1" d="M127.86,36.78h-8.72V28.06h8.72Zm-7-1.71h5.3V29.76h-5.3Z"/><rect class="cls-1" x="120" y="35.93" width="7.01" height="7.01"/><path class="cls-1" d="M127.86,43.79h-8.72V35.07h8.72Zm-7-1.7h5.3V36.78h-5.3Z"/><rect class="cls-1" x="120" y="42.94" width="7.01" height="7.01"/><path class="cls-1" d="M127.86,50.81h-8.72V42.09h8.72Zm-7-1.71h5.3V43.79h-5.3Z"/><rect class="cls-1" x="120" y="49.96" width="7.01" height="7.01"/><path class="cls-1" d="M127.86,57.82h-8.72V49.1h8.72Zm-7-1.7h5.3V50.81h-5.3Z"/><rect class="cls-1" x="120" y="56.97" width="7.01" height="7.01"/><path class="cls-1" d="M127.86,64.84h-8.72V56.12h8.72Zm-7-1.71h5.3V57.82h-5.3Z"/><rect class="cls-1" x="120" y="63.99" width="7.01" height="7.01"/><path class="cls-1" d="M127.86,71.85h-8.72V63.13h8.72Zm-7-1.7h5.3V64.84h-5.3Z"/><rect class="cls-1" x="120" y="71" width="7.01" height="7.01"/><path class="cls-1" d="M127.86,78.87h-8.72V70.15h8.72Zm-7-1.71h5.3V71.85h-5.3Z"/><rect class="cls-1" x="120" y="78.01" width="7.01" height="7.01"/><path class="cls-1" d="M127.86,85.88h-8.72V77.16h8.72Zm-7-1.7h5.3V78.87h-5.3Z"/><rect class="cls-1" x="120" y="85.03" width="7.01" height="7.01"/><path class="cls-1" d="M127.86,92.9h-8.72V84.18h8.72Zm-7-1.71h5.3V85.88h-5.3Z"/><rect class="cls-1" x="127" y="7.87" width="7.01" height="7.01"/><path class="cls-1" d="M134.86,15.73h-8.71V7h8.71Zm-7-1.7h5.3V8.72h-5.3Z"/><rect class="cls-1" x="127" y="14.88" width="7.01" height="7.01"/><path class="cls-1" d="M134.86,22.75h-8.71V14h8.71Zm-7-1.71h5.3V15.73h-5.3Z"/><rect class="cls-1" x="127" y="21.9" width="7.01" height="7.01"/><path class="cls-1" d="M134.86,29.76h-8.71V21h8.71Zm-7-1.7h5.3V22.75h-5.3Z"/><rect class="cls-1" x="127" y="28.91" width="7.01" height="7.01"/><path class="cls-1" d="M134.86,36.78h-8.71V28.06h8.71Zm-7-1.71h5.3V29.76h-5.3Z"/><rect class="cls-1" x="127" y="35.93" width="7.01" height="7.01"/><path class="cls-1" d="M134.86,43.79h-8.71V35.07h8.71Zm-7-1.7h5.3V36.78h-5.3Z"/><rect class="cls-1" x="127" y="42.94" width="7.01" height="7.01"/><path class="cls-1" d="M134.86,50.81h-8.71V42.09h8.71Zm-7-1.71h5.3V43.79h-5.3Z"/><rect class="cls-1" x="127" y="49.96" width="7.01" height="7.01"/><path class="cls-1" d="M134.86,57.82h-8.71V49.1h8.71Zm-7-1.7h5.3V50.81h-5.3Z"/><rect class="cls-1" x="127" y="56.97" width="7.01" height="7.01"/><path class="cls-1" d="M134.86,64.84h-8.71V56.12h8.71Zm-7-1.71h5.3V57.82h-5.3Z"/><rect class="cls-1" x="127" y="63.99" width="7.01" height="7.01"/><path class="cls-1" d="M134.86,71.85h-8.71V63.13h8.71Zm-7-1.7h5.3V64.84h-5.3Z"/><rect class="cls-1" x="127" y="71" width="7.01" height="7.01"/><path class="cls-1" d="M134.86,78.87h-8.71V70.15h8.71Zm-7-1.71h5.3V71.85h-5.3Z"/><rect class="cls-1" x="127" y="78.01" width="7.01" height="7.01"/><path class="cls-1" d="M134.86,85.88h-8.71V77.16h8.71Zm-7-1.7h5.3V78.87h-5.3Z"/><rect class="cls-1" x="127" y="85.03" width="7.01" height="7.01"/><path class="cls-1" d="M134.86,92.9h-8.71V84.18h8.71Zm-7-1.71h5.3V85.88h-5.3Z"/><rect class="cls-1" x="134.01" y="7.87" width="7.01" height="7.01"/><path class="cls-1" d="M141.87,15.73h-8.71V7h8.71Zm-7-1.7h5.31V8.72h-5.31Z"/><rect class="cls-1" x="134.01" y="14.88" width="7.01" height="7.01"/><path class="cls-1" d="M141.87,22.75h-8.71V14h8.71Zm-7-1.71h5.31V15.73h-5.31Z"/><rect class="cls-1" x="134.01" y="21.9" width="7.01" height="7.01"/><path class="cls-1" d="M141.87,29.76h-8.71V21h8.71Zm-7-1.7h5.31V22.75h-5.31Z"/><rect class="cls-1" x="134.01" y="28.91" width="7.01" height="7.01"/><path class="cls-1" d="M141.87,36.78h-8.71V28.06h8.71Zm-7-1.71h5.31V29.76h-5.31Z"/><rect class="cls-1" x="134.01" y="35.93" width="7.01" height="7.01"/><path class="cls-1" d="M141.87,43.79h-8.71V35.07h8.71Zm-7-1.7h5.31V36.78h-5.31Z"/><rect class="cls-1" x="134.01" y="42.94" width="7.01" height="7.01"/><path class="cls-1" d="M141.87,50.81h-8.71V42.09h8.71Zm-7-1.71h5.31V43.79h-5.31Z"/><rect class="cls-1" x="134.01" y="49.96" width="7.01" height="7.01"/><path class="cls-1" d="M141.87,57.82h-8.71V49.1h8.71Zm-7-1.7h5.31V50.81h-5.31Z"/><rect class="cls-1" x="134.01" y="56.97" width="7.01" height="7.01"/><path class="cls-1" d="M141.87,64.84h-8.71V56.12h8.71Zm-7-1.71h5.31V57.82h-5.31Z"/><rect class="cls-1" x="141.02" y="7.87" width="7.01" height="7.01"/><path class="cls-1" d="M148.88,15.73h-8.71V7h8.71Zm-7-1.7h5.31V8.72h-5.31Z"/><rect class="cls-1" x="141.02" y="14.88" width="7.01" height="7.01"/><path class="cls-1" d="M148.88,22.75h-8.71V14h8.71Zm-7-1.71h5.31V15.73h-5.31Z"/><rect class="cls-1" x="141.02" y="21.9" width="7.01" height="7.01"/><path class="cls-1" d="M148.88,29.76h-8.71V21h8.71Zm-7-1.7h5.31V22.75h-5.31Z"/><rect class="cls-1" x="141.02" y="28.91" width="7.01" height="7.01"/><path class="cls-1" d="M148.88,36.78h-8.71V28.06h8.71Zm-7-1.71h5.31V29.76h-5.31Z"/><rect class="cls-1" x="141.02" y="35.93" width="7.01" height="7.01"/><path class="cls-1" d="M148.88,43.79h-8.71V35.07h8.71Zm-7-1.7h5.31V36.78h-5.31Z"/><rect class="cls-1" x="141.02" y="42.94" width="7.01" height="7.01"/><path class="cls-1" d="M148.88,50.81h-8.71V42.09h8.71Zm-7-1.71h5.31V43.79h-5.31Z"/><rect class="cls-1" x="141.02" y="49.96" width="7.01" height="7.01"/><path class="cls-1" d="M148.88,57.82h-8.71V49.1h8.71Zm-7-1.7h5.31V50.81h-5.31Z"/><rect class="cls-1" x="141.02" y="56.97" width="7.01" height="7.01"/><path class="cls-1" d="M148.88,64.84h-8.71V56.12h8.71Zm-7-1.71h5.31V57.82h-5.31Z"/><rect class="cls-1" x="148.03" y="7.87" width="7.01" height="7.01"/><path class="cls-1" d="M155.89,15.73h-8.71V7h8.71Zm-7-1.7h5.31V8.72h-5.31Z"/><rect class="cls-1" x="148.03" y="14.88" width="7.01" height="7.01"/><path class="cls-1" d="M155.89,22.75h-8.71V14h8.71Zm-7-1.71h5.31V15.73h-5.31Z"/><rect class="cls-1" x="148.03" y="21.9" width="7.01" height="7.01"/><path class="cls-1" d="M155.89,29.76h-8.71V21h8.71Zm-7-1.7h5.31V22.75h-5.31Z"/><rect class="cls-1" x="148.03" y="28.91" width="7.01" height="7.01"/><path class="cls-1" d="M155.89,36.78h-8.71V28.06h8.71Zm-7-1.71h5.31V29.76h-5.31Z"/><rect class="cls-1" x="148.03" y="35.93" width="7.01" height="7.01"/><path class="cls-1" d="M155.89,43.79h-8.71V35.07h8.71Zm-7-1.7h5.31V36.78h-5.31Z"/><rect class="cls-1" x="148.03" y="42.94" width="7.01" height="7.01"/><path class="cls-1" d="M155.89,50.81h-8.71V42.09h8.71Zm-7-1.71h5.31V43.79h-5.31Z"/><rect class="cls-1" x="148.03" y="49.96" width="7.01" height="7.01"/><path class="cls-1" d="M155.89,57.82h-8.71V49.1h8.71Zm-7-1.7h5.31V50.81h-5.31Z"/><rect class="cls-1" x="148.03" y="56.97" width="7.01" height="7.01"/><path class="cls-1" d="M155.89,64.84h-8.71V56.12h8.71Zm-7-1.71h5.31V57.82h-5.31Z"/><rect class="cls-1" x="155.04" y="7.87" width="7.01" height="7.01"/><path class="cls-1" d="M162.9,15.73h-8.71V7h8.71Zm-7-1.7h5.3V8.72h-5.3Z"/><rect class="cls-1" x="155.04" y="14.88" width="7.01" height="7.01"/><path class="cls-1" d="M162.9,22.75h-8.71V14h8.71Zm-7-1.71h5.3V15.73h-5.3Z"/><rect class="cls-1" x="155.04" y="21.9" width="7.01" height="7.01"/><path class="cls-1" d="M162.9,29.76h-8.71V21h8.71Zm-7-1.7h5.3V22.75h-5.3Z"/><rect class="cls-1" x="155.04" y="28.91" width="7.01" height="7.01"/><path class="cls-1" d="M162.9,36.78h-8.71V28.06h8.71Zm-7-1.71h5.3V29.76h-5.3Z"/><rect class="cls-1" x="155.04" y="35.93" width="7.01" height="7.01"/><path class="cls-1" d="M162.9,43.79h-8.71V35.07h8.71Zm-7-1.7h5.3V36.78h-5.3Z"/><rect class="cls-1" x="155.04" y="42.94" width="7.01" height="7.01"/><path class="cls-1" d="M162.9,50.81h-8.71V42.09h8.71Zm-7-1.71h5.3V43.79h-5.3Z"/><rect class="cls-1" x="155.04" y="49.96" width="7.01" height="7.01"/><path class="cls-1" d="M162.9,57.82h-8.71V49.1h8.71Zm-7-1.7h5.3V50.81h-5.3Z"/><rect class="cls-1" x="155.04" y="56.97" width="7.01" height="7.01"/><path class="cls-1" d="M162.9,64.84h-8.71V56.12h8.71Zm-7-1.71h5.3V57.82h-5.3Z"/><rect class="cls-1" x="162.05" y="7.87" width="7.01" height="7.01"/><path class="cls-1" d="M169.91,15.73h-8.72V7h8.72Zm-7-1.7h5.3V8.72h-5.3Z"/><rect class="cls-1" x="162.05" y="14.88" width="7.01" height="7.01"/><path class="cls-1" d="M169.91,22.75h-8.72V14h8.72Zm-7-1.71h5.3V15.73h-5.3Z"/><rect class="cls-1" x="162.05" y="21.9" width="7.01" height="7.01"/><path class="cls-1" d="M169.91,29.76h-8.72V21h8.72Zm-7-1.7h5.3V22.75h-5.3Z"/><rect class="cls-1" x="162.05" y="28.91" width="7.01" height="7.01"/><path class="cls-1" d="M169.91,36.78h-8.72V28.06h8.72Zm-7-1.71h5.3V29.76h-5.3Z"/><rect class="cls-1" x="162.05" y="35.93" width="7.01" height="7.01"/><path class="cls-1" d="M169.91,43.79h-8.72V35.07h8.72Zm-7-1.7h5.3V36.78h-5.3Z"/><rect class="cls-1" x="162.05" y="42.94" width="7.01" height="7.01"/><path class="cls-1" d="M169.91,50.81h-8.72V42.09h8.72Zm-7-1.71h5.3V43.79h-5.3Z"/><rect class="cls-1" x="162.05" y="49.96" width="7.01" height="7.01"/><path class="cls-1" d="M169.91,57.82h-8.72V49.1h8.72Zm-7-1.7h5.3V50.81h-5.3Z"/><rect class="cls-1" x="162.05" y="56.97" width="7.01" height="7.01"/><path class="cls-1" d="M169.91,64.84h-8.72V56.12h8.72Zm-7-1.71h5.3V57.82h-5.3Z"/><rect class="cls-1" x="169.06" y="7.87" width="7.01" height="7.01"/><path class="cls-1" d="M176.92,15.73H168.2V7h8.72Zm-7-1.7h5.3V8.72h-5.3Z"/><rect class="cls-1" x="169.06" y="14.88" width="7.01" height="7.01"/><path class="cls-1" d="M176.92,22.75H168.2V14h8.72Zm-7-1.71h5.3V15.73h-5.3Z"/><rect class="cls-1" x="169.06" y="21.9" width="7.01" height="7.01"/><path class="cls-1" d="M176.92,29.76H168.2V21h8.72Zm-7-1.7h5.3V22.75h-5.3Z"/><rect class="cls-1" x="169.06" y="28.91" width="7.01" height="7.01"/><path class="cls-1" d="M176.92,36.78H168.2V28.06h8.72Zm-7-1.71h5.3V29.76h-5.3Z"/><rect class="cls-1" x="169.06" y="35.93" width="7.01" height="7.01"/><path class="cls-1" d="M176.92,43.79H168.2V35.07h8.72Zm-7-1.7h5.3V36.78h-5.3Z"/><rect class="cls-1" x="169.06" y="42.94" width="7.01" height="7.01"/><path class="cls-1" d="M176.92,50.81H168.2V42.09h8.72Zm-7-1.71h5.3V43.79h-5.3Z"/><rect class="cls-1" x="169.06" y="49.96" width="7.01" height="7.01"/><path class="cls-1" d="M176.92,57.82H168.2V49.1h8.72Zm-7-1.7h5.3V50.81h-5.3Z"/><rect class="cls-1" x="169.06" y="56.97" width="7.01" height="7.01"/><path class="cls-1" d="M176.92,64.84H168.2V56.12h8.72Zm-7-1.71h5.3V57.82h-5.3Z"/><rect class="cls-1" x="169.06" y="63.99" width="7.01" height="7.01"/><path class="cls-1" d="M176.92,71.85H168.2V63.13h8.72Zm-7-1.7h5.3V64.84h-5.3Z"/><rect class="cls-1" x="169.06" y="71" width="7.01" height="7.01"/><path class="cls-1" d="M176.92,78.87H168.2V70.15h8.72Zm-7-1.71h5.3V71.85h-5.3Z"/><rect class="cls-1" x="169.06" y="78.01" width="7.01" height="7.01"/><path class="cls-1" d="M176.92,85.88H168.2V77.16h8.72Zm-7-1.7h5.3V78.87h-5.3Z"/><rect class="cls-1" x="176.06" y="7.87" width="7.01" height="7.01"/><path class="cls-1" d="M183.92,15.73h-8.71V7h8.71Zm-7-1.7h5.3V8.72h-5.3Z"/><rect class="cls-1" x="176.06" y="14.88" width="7.01" height="7.01"/><path class="cls-1" d="M183.92,22.75h-8.71V14h8.71Zm-7-1.71h5.3V15.73h-5.3Z"/><rect class="cls-1" x="176.06" y="21.9" width="7.01" height="7.01"/><path class="cls-1" d="M183.92,29.76h-8.71V21h8.71Zm-7-1.7h5.3V22.75h-5.3Z"/><rect class="cls-1" x="176.06" y="28.91" width="7.01" height="7.01"/><path class="cls-1" d="M183.92,36.78h-8.71V28.06h8.71Zm-7-1.71h5.3V29.76h-5.3Z"/><rect class="cls-1" x="176.06" y="35.93" width="7.01" height="7.01"/><path class="cls-1" d="M183.92,43.79h-8.71V35.07h8.71Zm-7-1.7h5.3V36.78h-5.3Z"/><rect class="cls-1" x="176.06" y="42.94" width="7.01" height="7.01"/><path class="cls-1" d="M183.92,50.81h-8.71V42.09h8.71Zm-7-1.71h5.3V43.79h-5.3Z"/><rect class="cls-1" x="176.06" y="49.96" width="7.01" height="7.01"/><path class="cls-1" d="M183.92,57.82h-8.71V49.1h8.71Zm-7-1.7h5.3V50.81h-5.3Z"/><rect class="cls-1" x="176.06" y="56.97" width="7.01" height="7.01"/><path class="cls-1" d="M183.92,64.84h-8.71V56.12h8.71Zm-7-1.71h5.3V57.82h-5.3Z"/><rect class="cls-1" x="176.06" y="63.99" width="7.01" height="7.01"/><path class="cls-1" d="M183.92,71.85h-8.71V63.13h8.71Zm-7-1.7h5.3V64.84h-5.3Z"/><rect class="cls-1" x="176.06" y="71" width="7.01" height="7.01"/><path class="cls-1" d="M183.92,78.87h-8.71V70.15h8.71Zm-7-1.71h5.3V71.85h-5.3Z"/><rect class="cls-1" x="176.06" y="78.01" width="7.01" height="7.01"/><path class="cls-1" d="M183.92,85.88h-8.71V77.16h8.71Zm-7-1.7h5.3V78.87h-5.3Z"/><rect class="cls-1" x="183.07" y="7.87" width="7.01" height="7.01"/><path class="cls-1" d="M190.93,15.73h-8.71V7h8.71Zm-7-1.7h5.31V8.72h-5.31Z"/><rect class="cls-1" x="183.07" y="14.88" width="7.01" height="7.01"/><path class="cls-1" d="M190.93,22.75h-8.71V14h8.71Zm-7-1.71h5.31V15.73h-5.31Z"/><rect class="cls-1" x="183.07" y="21.9" width="7.01" height="7.01"/><path class="cls-1" d="M190.93,29.76h-8.71V21h8.71Zm-7-1.7h5.31V22.75h-5.31Z"/><rect class="cls-1" x="183.07" y="28.91" width="7.01" height="7.01"/><path class="cls-1" d="M190.93,36.78h-8.71V28.06h8.71Zm-7-1.71h5.31V29.76h-5.31Z"/><rect class="cls-1" x="183.07" y="35.93" width="7.01" height="7.01"/><path class="cls-1" d="M190.93,43.79h-8.71V35.07h8.71Zm-7-1.7h5.31V36.78h-5.31Z"/><rect class="cls-1" x="183.07" y="42.94" width="7.01" height="7.01"/><path class="cls-1" d="M190.93,50.81h-8.71V42.09h8.71Zm-7-1.71h5.31V43.79h-5.31Z"/><rect class="cls-1" x="183.07" y="49.96" width="7.01" height="7.01"/><path class="cls-1" d="M190.93,57.82h-8.71V49.1h8.71Zm-7-1.7h5.31V50.81h-5.31Z"/><rect class="cls-1" x="183.07" y="56.97" width="7.01" height="7.01"/><path class="cls-1" d="M190.93,64.84h-8.71V56.12h8.71Zm-7-1.71h5.31V57.82h-5.31Z"/><rect class="cls-1" x="183.07" y="63.99" width="7.01" height="7.01"/><path class="cls-1" d="M190.93,71.85h-8.71V63.13h8.71Zm-7-1.7h5.31V64.84h-5.31Z"/><rect class="cls-1" x="183.07" y="71" width="7.01" height="7.01"/><path class="cls-1" d="M190.93,78.87h-8.71V70.15h8.71Zm-7-1.71h5.31V71.85h-5.31Z"/><rect class="cls-1" x="183.07" y="78.01" width="7.01" height="7.01"/><path class="cls-1" d="M190.93,85.88h-8.71V77.16h8.71Zm-7-1.7h5.31V78.87h-5.31Z"/><rect class="cls-1" x="190.08" y="7.87" width="7.01" height="7.01"/><path class="cls-1" d="M197.94,15.73h-8.71V7h8.71Zm-7-1.7h5.31V8.72h-5.31Z"/><rect class="cls-1" x="190.08" y="14.88" width="7.01" height="7.01"/><path class="cls-1" d="M197.94,22.75h-8.71V14h8.71Zm-7-1.71h5.31V15.73h-5.31Z"/><rect class="cls-1" x="190.08" y="21.9" width="7.01" height="7.01"/><path class="cls-1" d="M197.94,29.76h-8.71V21h8.71Zm-7-1.7h5.31V22.75h-5.31Z"/><rect class="cls-1" x="190.08" y="28.91" width="7.01" height="7.01"/><path class="cls-1" d="M197.94,36.78h-8.71V28.06h8.71Zm-7-1.71h5.31V29.76h-5.31Z"/><rect class="cls-1" x="190.08" y="35.93" width="7.01" height="7.01"/><path class="cls-1" d="M197.94,43.79h-8.71V35.07h8.71Zm-7-1.7h5.31V36.78h-5.31Z"/><rect class="cls-1" x="190.08" y="42.94" width="7.01" height="7.01"/><path class="cls-1" d="M197.94,50.81h-8.71V42.09h8.71Zm-7-1.71h5.31V43.79h-5.31Z"/><rect class="cls-1" x="190.08" y="49.96" width="7.01" height="7.01"/><path class="cls-1" d="M197.94,57.82h-8.71V49.1h8.71Zm-7-1.7h5.31V50.81h-5.31Z"/><rect class="cls-1" x="190.08" y="56.97" width="7.01" height="7.01"/><path class="cls-1" d="M197.94,64.84h-8.71V56.12h8.71Zm-7-1.71h5.31V57.82h-5.31Z"/><rect class="cls-1" x="190.08" y="63.99" width="7.01" height="7.01"/><path class="cls-1" d="M197.94,71.85h-8.71V63.13h8.71Zm-7-1.7h5.31V64.84h-5.31Z"/><rect class="cls-1" x="190.08" y="71" width="7.01" height="7.01"/><path class="cls-1" d="M197.94,78.87h-8.71V70.15h8.71Zm-7-1.71h5.31V71.85h-5.31Z"/><rect class="cls-1" x="190.08" y="78.01" width="7.01" height="7.01"/><path class="cls-1" d="M197.94,85.88h-8.71V77.16h8.71Zm-7-1.7h5.31V78.87h-5.31Z"/><rect class="cls-1" x="197.09" y="7.87" width="7.01" height="7.01"/><path class="cls-1" d="M205,15.73h-8.71V7H205Zm-7-1.7h5.31V8.72h-5.31Z"/><rect class="cls-1" x="197.09" y="14.88" width="7.01" height="7.01"/><path class="cls-1" d="M205,22.75h-8.71V14H205Zm-7-1.71h5.31V15.73h-5.31Z"/><rect class="cls-1" x="197.09" y="21.9" width="7.01" height="7.01"/><path class="cls-1" d="M205,29.76h-8.71V21H205Zm-7-1.7h5.31V22.75h-5.31Z"/><rect class="cls-1" x="197.09" y="28.91" width="7.01" height="7.01"/><path class="cls-1" d="M205,36.78h-8.71V28.06H205Zm-7-1.71h5.31V29.76h-5.31Z"/><rect class="cls-1" x="197.09" y="35.93" width="7.01" height="7.01"/><path class="cls-1" d="M205,43.79h-8.71V35.07H205Zm-7-1.7h5.31V36.78h-5.31Z"/><rect class="cls-1" x="197.09" y="42.94" width="7.01" height="7.01"/><path class="cls-1" d="M205,50.81h-8.71V42.09H205Zm-7-1.71h5.31V43.79h-5.31Z"/><rect class="cls-1" x="197.09" y="49.96" width="7.01" height="7.01"/><path class="cls-1" d="M205,57.82h-8.71V49.1H205Zm-7-1.7h5.31V50.81h-5.31Z"/><rect class="cls-1" x="197.09" y="56.97" width="7.01" height="7.01"/><path class="cls-1" d="M205,64.84h-8.71V56.12H205Zm-7-1.71h5.31V57.82h-5.31Z"/><rect class="cls-1" x="197.09" y="63.99" width="7.01" height="7.01"/><path class="cls-1" d="M205,71.85h-8.71V63.13H205Zm-7-1.7h5.31V64.84h-5.31Z"/><rect class="cls-1" x="197.09" y="71" width="7.01" height="7.01"/><path class="cls-1" d="M205,78.87h-8.71V70.15H205Zm-7-1.71h5.31V71.85h-5.31Z"/><rect class="cls-1" x="197.09" y="78.01" width="7.01" height="7.01"/><path class="cls-1" d="M205,85.88h-8.71V77.16H205Zm-7-1.7h5.31V78.87h-5.31Z"/><rect class="cls-1" x="204.1" y="7.87" width="7.01" height="7.01"/><path class="cls-1" d="M212,15.73h-8.71V7H212ZM205,14h5.3V8.72H205Z"/><rect class="cls-1" x="204.1" y="14.88" width="7.01" height="7.01"/><path class="cls-1" d="M212,22.75h-8.71V14H212ZM205,21h5.3V15.73H205Z"/><rect class="cls-1" x="204.1" y="21.9" width="7.01" height="7.01"/><path class="cls-1" d="M212,29.76h-8.71V21H212Zm-7-1.7h5.3V22.75H205Z"/><rect class="cls-1" x="204.1" y="28.91" width="7.01" height="7.01"/><path class="cls-1" d="M212,36.78h-8.71V28.06H212Zm-7-1.71h5.3V29.76H205Z"/><rect class="cls-1" x="204.1" y="35.93" width="7.01" height="7.01"/><path class="cls-1" d="M212,43.79h-8.71V35.07H212Zm-7-1.7h5.3V36.78H205Z"/><rect class="cls-1" x="204.1" y="42.94" width="7.01" height="7.01"/><path class="cls-1" d="M212,50.81h-8.71V42.09H212Zm-7-1.71h5.3V43.79H205Z"/><rect class="cls-1" x="204.1" y="49.96" width="7.01" height="7.01"/><path class="cls-1" d="M212,57.82h-8.71V49.1H212Zm-7-1.7h5.3V50.81H205Z"/><rect class="cls-1" x="204.1" y="56.97" width="7.01" height="7.01"/><path class="cls-1" d="M212,64.84h-8.71V56.12H212Zm-7-1.71h5.3V57.82H205Z"/><rect class="cls-1" x="204.1" y="63.99" width="7.01" height="7.01"/><path class="cls-1" d="M212,71.85h-8.71V63.13H212Zm-7-1.7h5.3V64.84H205Z"/><rect class="cls-1" x="204.1" y="71" width="7.01" height="7.01"/><path class="cls-1" d="M212,78.87h-8.71V70.15H212Zm-7-1.71h5.3V71.85H205Z"/><rect class="cls-1" x="204.1" y="78.01" width="7.01" height="7.01"/><path class="cls-1" d="M212,85.88h-8.71V77.16H212Zm-7-1.7h5.3V78.87H205Z"/><rect class="cls-1" x="211.11" y="7.87" width="7.01" height="7.01"/><path class="cls-1" d="M219,15.73h-8.72V7H219ZM212,14h5.3V8.72H212Z"/><rect class="cls-1" x="211.11" y="14.88" width="7.01" height="7.01"/><path class="cls-1" d="M219,22.75h-8.72V14H219ZM212,21h5.3V15.73H212Z"/><rect class="cls-1" x="211.11" y="21.9" width="7.01" height="7.01"/><path class="cls-1" d="M219,29.76h-8.72V21H219Zm-7-1.7h5.3V22.75H212Z"/><rect class="cls-1" x="211.11" y="28.91" width="7.01" height="7.01"/><path class="cls-1" d="M219,36.78h-8.72V28.06H219Zm-7-1.71h5.3V29.76H212Z"/><rect class="cls-1" x="211.11" y="35.93" width="7.01" height="7.01"/><path class="cls-1" d="M219,43.79h-8.72V35.07H219Zm-7-1.7h5.3V36.78H212Z"/><rect class="cls-1" x="211.11" y="42.94" width="7.01" height="7.01"/><path class="cls-1" d="M219,50.81h-8.72V42.09H219Zm-7-1.71h5.3V43.79H212Z"/><rect class="cls-1" x="211.11" y="49.96" width="7.01" height="7.01"/><path class="cls-1" d="M219,57.82h-8.72V49.1H219Zm-7-1.7h5.3V50.81H212Z"/><rect class="cls-1" x="211.11" y="56.97" width="7.01" height="7.01"/><path class="cls-1" d="M219,64.84h-8.72V56.12H219Zm-7-1.71h5.3V57.82H212Z"/><rect class="cls-1" x="211.11" y="63.99" width="7.01" height="7.01"/><path class="cls-1" d="M219,71.85h-8.72V63.13H219Zm-7-1.7h5.3V64.84H212Z"/><rect class="cls-1" x="211.11" y="71" width="7.01" height="7.01"/><path class="cls-1" d="M219,78.87h-8.72V70.15H219Zm-7-1.71h5.3V71.85H212Z"/><rect class="cls-1" x="211.11" y="78.01" width="7.01" height="7.01"/><path class="cls-1" d="M219,85.88h-8.72V77.16H219Zm-7-1.7h5.3V78.87H212Z"/><rect class="cls-1" x="218.11" y="7.87" width="7.01" height="7.01"/><path class="cls-1" d="M226,15.73h-8.71V7H226ZM219,14h5.3V8.72H219Z"/><rect class="cls-1" x="218.11" y="14.88" width="7.01" height="7.01"/><path class="cls-1" d="M226,22.75h-8.71V14H226ZM219,21h5.3V15.73H219Z"/><rect class="cls-1" x="218.11" y="21.9" width="7.01" height="7.01"/><path class="cls-1" d="M226,29.76h-8.71V21H226Zm-7-1.7h5.3V22.75H219Z"/><rect class="cls-1" x="218.11" y="28.91" width="7.01" height="7.01"/><path class="cls-1" d="M226,36.78h-8.71V28.06H226Zm-7-1.71h5.3V29.76H219Z"/><rect class="cls-1" x="218.11" y="35.93" width="7.01" height="7.01"/><path class="cls-1" d="M226,43.79h-8.71V35.07H226Zm-7-1.7h5.3V36.78H219Z"/><rect class="cls-1" x="218.11" y="42.94" width="7.01" height="7.01"/><path class="cls-1" d="M226,50.81h-8.71V42.09H226Zm-7-1.71h5.3V43.79H219Z"/><rect class="cls-1" x="218.11" y="49.96" width="7.01" height="7.01"/><path class="cls-1" d="M226,57.82h-8.71V49.1H226Zm-7-1.7h5.3V50.81H219Z"/><rect class="cls-1" x="218.11" y="56.97" width="7.01" height="7.01"/><path class="cls-1" d="M226,64.84h-8.71V56.12H226Zm-7-1.71h5.3V57.82H219Z"/><rect class="cls-1" x="218.11" y="63.99" width="7.01" height="7.01"/><path class="cls-1" d="M226,71.85h-8.71V63.13H226Zm-7-1.7h5.3V64.84H219Z"/><rect class="cls-1" x="218.11" y="71" width="7.01" height="7.01"/><path class="cls-1" d="M226,78.87h-8.71V70.15H226Zm-7-1.71h5.3V71.85H219Z"/><rect class="cls-1" x="218.11" y="78.01" width="7.01" height="7.01"/><path class="cls-1" d="M226,85.88h-8.71V77.16H226Zm-7-1.7h5.3V78.87H219Z"/><rect class="cls-1" x="225.12" y="7.87" width="7.01" height="7.01"/><path class="cls-1" d="M233,15.73h-8.71V7H233ZM226,14h5.31V8.72H226Z"/><rect class="cls-1" x="225.12" y="14.88" width="7.01" height="7.01"/><path class="cls-1" d="M233,22.75h-8.71V14H233ZM226,21h5.31V15.73H226Z"/><rect class="cls-1" x="225.12" y="21.9" width="7.01" height="7.01"/><path class="cls-1" d="M233,29.76h-8.71V21H233Zm-7-1.7h5.31V22.75H226Z"/><rect class="cls-1" x="225.12" y="28.91" width="7.01" height="7.01"/><path class="cls-1" d="M233,36.78h-8.71V28.06H233Zm-7-1.71h5.31V29.76H226Z"/><rect class="cls-1" x="225.12" y="35.93" width="7.01" height="7.01"/><path class="cls-1" d="M233,43.79h-8.71V35.07H233Zm-7-1.7h5.31V36.78H226Z"/><rect class="cls-1" x="225.12" y="42.94" width="7.01" height="7.01"/><path class="cls-1" d="M233,50.81h-8.71V42.09H233Zm-7-1.71h5.31V43.79H226Z"/><rect class="cls-1" x="225.12" y="49.96" width="7.01" height="7.01"/><path class="cls-1" d="M233,57.82h-8.71V49.1H233Zm-7-1.7h5.31V50.81H226Z"/><rect class="cls-1" x="225.12" y="56.97" width="7.01" height="7.01"/><path class="cls-1" d="M233,64.84h-8.71V56.12H233Zm-7-1.71h5.31V57.82H226Z"/><rect class="cls-1" x="225.12" y="63.99" width="7.01" height="7.01"/><path class="cls-1" d="M233,71.85h-8.71V63.13H233Zm-7-1.7h5.31V64.84H226Z"/><rect class="cls-1" x="225.12" y="71" width="7.01" height="7.01"/><path class="cls-1" d="M233,78.87h-8.71V70.15H233Zm-7-1.71h5.31V71.85H226Z"/><rect class="cls-1" x="225.12" y="78.01" width="7.01" height="7.01"/><path class="cls-1" d="M233,85.88h-8.71V77.16H233Zm-7-1.7h5.31V78.87H226Z"/><rect class="cls-1" x="134.01" y="63.99" width="7.01" height="7.01"/><path class="cls-1" d="M141.87,71.85h-8.71V63.13h8.71Zm-7-1.7h5.31V64.84h-5.31Z"/><rect class="cls-1" x="134.01" y="78.01" width="7.01" height="7.01"/><path class="cls-1" d="M141.87,85.88h-8.71V77.16h8.71Zm-7-1.7h5.31V78.87h-5.31Z"/><rect class="cls-1" x="134.01" y="85.03" width="7.01" height="7.01"/><path class="cls-1" d="M141.87,92.9h-8.71V84.18h8.71Zm-7-1.71h5.31V85.88h-5.31Z"/><rect class="cls-1" x="134.01" y="92.04" width="7.01" height="7.01"/><path class="cls-1" d="M141.87,99.91h-8.71V91.19h8.71Zm-7-1.7h5.31V92.9h-5.31Z"/><rect class="cls-1" x="134.01" y="99.06" width="7.01" height="7.01"/><path class="cls-1" d="M141.87,106.93h-8.71V98.21h8.71Zm-7-1.71h5.31V99.91h-5.31Z"/><rect class="cls-1" x="134.01" y="106.07" width="7.01" height="7.01"/><path class="cls-1" d="M141.87,113.94h-8.71v-8.72h8.71Zm-7-1.7h5.31v-5.31h-5.31Z"/><rect class="cls-1" x="141.02" y="85.03" width="7.01" height="7.01"/><path class="cls-1" d="M148.88,92.9h-8.71V84.18h8.71Zm-7-1.71h5.31V85.88h-5.31Z"/><rect class="cls-1" x="141.02" y="92.04" width="7.01" height="7.01"/><path class="cls-1" d="M148.88,99.91h-8.71V91.19h8.71Zm-7-1.7h5.31V92.9h-5.31Z"/><rect class="cls-1" x="141.02" y="99.06" width="7.01" height="7.01"/><path class="cls-1" d="M148.88,106.93h-8.71V98.21h8.71Zm-7-1.71h5.31V99.91h-5.31Z"/><rect class="cls-1" x="141.02" y="106.07" width="7.01" height="7.01"/><path class="cls-1" d="M148.88,113.94h-8.71v-8.72h8.71Zm-7-1.7h5.31v-5.31h-5.31Z"/><rect class="cls-1" x="141.02" y="113.09" width="7.01" height="7.01"/><path class="cls-1" d="M148.88,121h-8.71v-8.72h8.71Zm-7-1.71h5.31v-5.31h-5.31Z"/><rect class="cls-1" x="148.03" y="85.03" width="7.01" height="7.01"/><path class="cls-1" d="M155.89,92.9h-8.71V84.18h8.71Zm-7-1.71h5.31V85.88h-5.31Z"/><rect class="cls-1" x="148.03" y="92.04" width="7.01" height="7.01"/><path class="cls-1" d="M155.89,99.91h-8.71V91.19h8.71Zm-7-1.7h5.31V92.9h-5.31Z"/><rect class="cls-1" x="148.03" y="99.06" width="7.01" height="7.01"/><path class="cls-1" d="M155.89,106.93h-8.71V98.21h8.71Zm-7-1.71h5.31V99.91h-5.31Z"/><rect class="cls-1" x="148.03" y="106.07" width="7.01" height="7.01"/><path class="cls-1" d="M155.89,113.94h-8.71v-8.72h8.71Zm-7-1.7h5.31v-5.31h-5.31Z"/><rect class="cls-1" x="148.03" y="113.09" width="7.01" height="7.01"/><path class="cls-1" d="M155.89,121h-8.71v-8.72h8.71Zm-7-1.71h5.31v-5.31h-5.31Z"/><rect class="cls-1" x="148.03" y="120.1" width="7.01" height="7.01"/><path class="cls-1" d="M155.89,128h-8.71v-8.72h8.71Zm-7-1.7h5.31V121h-5.31Z"/><rect class="cls-1" x="155.04" y="113.09" width="7.01" height="7.01"/><path class="cls-1" d="M162.9,121h-8.71v-8.72h8.71Zm-7-1.71h5.3v-5.31h-5.3Z"/><rect class="cls-1" x="155.04" y="120.1" width="7.01" height="7.01"/><path class="cls-1" d="M162.9,128h-8.71v-8.72h8.71Zm-7-1.7h5.3V121h-5.3Z"/><rect class="cls-1" x="134.01" y="71" width="7.01" height="7.01"/><path class="cls-1" d="M141.87,78.87h-8.71V70.15h8.71Zm-7-1.71h5.31V71.85h-5.31Z"/><rect class="cls-1" x="141.02" y="63.99" width="7.01" height="7.01"/><path class="cls-1" d="M148.88,71.85h-8.71V63.13h8.71Zm-7-1.7h5.31V64.84h-5.31Z"/><rect class="cls-1" x="141.02" y="71" width="7.01" height="7.01"/><path class="cls-1" d="M148.88,78.87h-8.71V70.15h8.71Zm-7-1.71h5.31V71.85h-5.31Z"/><rect class="cls-1" x="141.02" y="78.01" width="7.01" height="7.01"/><path class="cls-1" d="M148.88,85.88h-8.71V77.16h8.71Zm-7-1.7h5.31V78.87h-5.31Z"/><rect class="cls-1" x="148.03" y="63.99" width="7.01" height="7.01"/><path class="cls-1" d="M155.89,71.85h-8.71V63.13h8.71Zm-7-1.7h5.31V64.84h-5.31Z"/><rect class="cls-1" x="148.03" y="71" width="7.01" height="7.01"/><path class="cls-1" d="M155.89,78.87h-8.71V70.15h8.71Zm-7-1.71h5.31V71.85h-5.31Z"/><rect class="cls-1" x="148.03" y="78.01" width="7.01" height="7.01"/><path class="cls-1" d="M155.89,85.88h-8.71V77.16h8.71Zm-7-1.7h5.31V78.87h-5.31Z"/><rect class="cls-1" x="155.04" y="63.99" width="7.01" height="7.01"/><path class="cls-1" d="M162.9,71.85h-8.71V63.13h8.71Zm-7-1.7h5.3V64.84h-5.3Z"/><rect class="cls-1" x="155.04" y="71" width="7.01" height="7.01"/><path class="cls-1" d="M162.9,78.87h-8.71V70.15h8.71Zm-7-1.71h5.3V71.85h-5.3Z"/><rect class="cls-1" x="155.04" y="78.01" width="7.01" height="7.01"/><path class="cls-1" d="M162.9,85.88h-8.71V77.16h8.71Zm-7-1.7h5.3V78.87h-5.3Z"/><rect class="cls-1" x="155.04" y="85.03" width="7.01" height="7.01"/><path class="cls-1" d="M162.9,92.9h-8.71V84.18h8.71Zm-7-1.71h5.3V85.88h-5.3Z"/><rect class="cls-1" x="162.05" y="63.99" width="7.01" height="7.01"/><path class="cls-1" d="M169.91,71.85h-8.72V63.13h8.72Zm-7-1.7h5.3V64.84h-5.3Z"/><rect class="cls-1" x="162.05" y="71" width="7.01" height="7.01"/><path class="cls-1" d="M169.91,78.87h-8.72V70.15h8.72Zm-7-1.71h5.3V71.85h-5.3Z"/><rect class="cls-1" x="162.05" y="78.01" width="7.01" height="7.01"/><path class="cls-1" d="M169.91,85.88h-8.72V77.16h8.72Zm-7-1.7h5.3V78.87h-5.3Z"/><rect class="cls-1" x="162.05" y="85.03" width="7.01" height="7.01"/><path class="cls-1" d="M169.91,92.9h-8.72V84.18h8.72Zm-7-1.71h5.3V85.88h-5.3Z"/><rect class="cls-1" x="169.06" y="85.03" width="7.01" height="7.01"/><path class="cls-1" d="M176.92,92.9H168.2V84.18h8.72Zm-7-1.71h5.3V85.88h-5.3Z"/><rect class="cls-1" x="176.06" y="85.03" width="7.01" height="7.01"/><path class="cls-1" d="M183.92,92.9h-8.71V84.18h8.71Zm-7-1.71h5.3V85.88h-5.3Z"/><rect class="cls-1" x="183.07" y="85.03" width="7.01" height="7.01"/><path class="cls-1" d="M190.93,92.9h-8.71V84.18h8.71Zm-7-1.71h5.31V85.88h-5.31Z"/><rect class="cls-1" x="190.08" y="85.03" width="7.01" height="7.01"/><path class="cls-1" d="M197.94,92.9h-8.71V84.18h8.71Zm-7-1.71h5.31V85.88h-5.31Z"/><rect class="cls-1" x="197.09" y="85.03" width="7.01" height="7.01"/><path class="cls-1" d="M205,92.9h-8.71V84.18H205Zm-7-1.71h5.31V85.88h-5.31Z"/><rect class="cls-1" x="204.1" y="85.03" width="7.01" height="7.01"/><path class="cls-1" d="M212,92.9h-8.71V84.18H212Zm-7-1.71h5.3V85.88H205Z"/><rect class="cls-1" x="211.11" y="85.03" width="7.01" height="7.01"/><path class="cls-1" d="M219,92.9h-8.72V84.18H219Zm-7-1.71h5.3V85.88H212Z"/><rect class="cls-1" x="218.11" y="85.03" width="7.01" height="7.01"/><path class="cls-1" d="M226,92.9h-8.71V84.18H226Zm-7-1.71h5.3V85.88H219Z"/><rect class="cls-1" x="225.12" y="85.03" width="7.01" height="7.01"/><path class="cls-1" d="M233,92.9h-8.71V84.18H233Zm-7-1.71h5.31V85.88H226Z"/><rect class="cls-1" x="232.13" y="14.88" width="7.01" height="7.01"/><path class="cls-1" d="M240,22.75h-8.71V14H240ZM233,21h5.31V15.73H233Z"/><rect class="cls-1" x="232.13" y="21.9" width="7.01" height="7.01"/><path class="cls-1" d="M240,29.76h-8.71V21H240Zm-7-1.7h5.31V22.75H233Z"/><rect class="cls-1" x="232.13" y="28.91" width="7.01" height="7.01"/><path class="cls-1" d="M240,36.78h-8.71V28.06H240Zm-7-1.71h5.31V29.76H233Z"/><rect class="cls-1" x="232.13" y="35.93" width="7.01" height="7.01"/><path class="cls-1" d="M240,43.79h-8.71V35.07H240Zm-7-1.7h5.31V36.78H233Z"/><rect class="cls-1" x="232.13" y="42.94" width="7.01" height="7.01"/><path class="cls-1" d="M240,50.81h-8.71V42.09H240Zm-7-1.71h5.31V43.79H233Z"/><rect class="cls-1" x="232.13" y="49.96" width="7.01" height="7.01"/><path class="cls-1" d="M240,57.82h-8.71V49.1H240Zm-7-1.7h5.31V50.81H233Z"/><rect class="cls-1" x="232.13" y="56.97" width="7.01" height="7.01"/><path class="cls-1" d="M240,64.84h-8.71V56.12H240Zm-7-1.71h5.31V57.82H233Z"/><rect class="cls-1" x="232.13" y="63.99" width="7.01" height="7.01"/><path class="cls-1" d="M240,71.85h-8.71V63.13H240Zm-7-1.7h5.31V64.84H233Z"/><rect class="cls-1" x="232.13" y="71" width="7.01" height="7.01"/><path class="cls-1" d="M240,78.87h-8.71V70.15H240Zm-7-1.71h5.31V71.85H233Z"/><rect class="cls-1" x="232.13" y="78.01" width="7.01" height="7.01"/><path class="cls-1" d="M240,85.88h-8.71V77.16H240Zm-7-1.7h5.31V78.87H233Z"/><rect x="14.87" y="92.04" width="7.01" height="7.01"/><path d="M22.73,99.91H14V91.19h8.71Zm-7-1.7H21V92.9H15.72Z"/><rect x="21.88" y="92.04" width="7.01" height="7.01"/><path d="M29.74,99.91H21V91.19h8.71Zm-7-1.7H28V92.9h-5.3Z"/><rect x="28.89" y="92.04" width="7.01" height="7.01"/><path d="M36.75,99.91H28V91.19h8.72Zm-7-1.7H35V92.9h-5.3Z"/><rect x="35.89" y="92.04" width="7.01" height="7.01"/><path d="M43.75,99.91H35V91.19h8.71Zm-7-1.7h5.3V92.9h-5.3Z"/><rect x="42.9" y="92.04" width="7.01" height="7.01"/><path d="M50.76,99.91H42.05V91.19h8.71Zm-7-1.7h5.31V92.9H43.75Z"/><rect x="49.91" y="92.04" width="7.01" height="7.01"/><path d="M57.77,99.91H49.06V91.19h8.71Zm-7-1.7h5.31V92.9H50.76Z"/><rect x="56.92" y="92.04" width="7.01" height="7.01"/><path d="M64.78,99.91H56.07V91.19h8.71Zm-7-1.7h5.31V92.9H57.77Z"/><rect x="63.93" y="92.04" width="7.01" height="7.01"/><path d="M71.79,99.91H63.08V91.19h8.71Zm-7-1.7h5.3V92.9h-5.3Z"/><rect x="70.94" y="92.04" width="7.01" height="7.01"/><path d="M78.8,99.91H70.08V91.19H78.8Zm-7-1.7h5.3V92.9h-5.3Z"/><rect x="77.95" y="92.04" width="7.01" height="7.01"/><path d="M85.81,99.91H77.09V91.19h8.72Zm-7-1.7h5.3V92.9H78.8Z"/><rect x="84.95" y="92.04" width="7.01" height="7.01"/><path d="M92.81,99.91H84.1V91.19h8.71Zm-7-1.7h5.3V92.9h-5.3Z"/><rect x="91.96" y="92.04" width="7.01" height="7.01"/><path d="M99.82,99.91H91.11V91.19h8.71Zm-7-1.7h5.31V92.9H92.81Z"/><rect x="98.97" y="92.04" width="7.01" height="7.01"/><path d="M106.83,99.91H98.12V91.19h8.71Zm-7-1.7h5.31V92.9H99.82Z"/><rect x="105.98" y="92.04" width="7.01" height="7.01"/><path d="M113.84,99.91h-8.71V91.19h8.71Zm-7-1.7h5.31V92.9h-5.31Z"/><rect x="112.99" y="92.04" width="7.01" height="7.01"/><path d="M120.85,99.91h-8.71V91.19h8.71Zm-7-1.7h5.3V92.9h-5.3Z"/><rect x="120" y="92.04" width="7.01" height="7.01"/><path d="M127.86,99.91h-8.72V91.19h8.72Zm-7-1.7h5.3V92.9h-5.3Z"/><rect x="0.85" y="14.88" width="7.01" height="7.01"/><path d="M8.71,22.75H0V14H8.71ZM1.7,21H7V15.73H1.7Z"/><rect x="0.85" y="21.9" width="7.01" height="7.01"/><path d="M8.71,29.76H0V21H8.71Zm-7-1.7H7V22.75H1.7Z"/><rect x="0.85" y="28.91" width="7.01" height="7.01"/><path d="M8.71,36.78H0V28.06H8.71Zm-7-1.71H7V29.76H1.7Z"/><rect x="0.85" y="35.93" width="7.01" height="7.01"/><path d="M8.71,43.79H0V35.07H8.71Zm-7-1.7H7V36.78H1.7Z"/><rect x="0.85" y="42.94" width="7.01" height="7.01"/><path d="M8.71,50.81H0V42.09H8.71Zm-7-1.71H7V43.79H1.7Z"/><rect x="0.85" y="49.96" width="7.01" height="7.01"/><path d="M8.71,57.82H0V49.1H8.71Zm-7-1.7H7V50.81H1.7Z"/><rect x="0.85" y="56.97" width="7.01" height="7.01"/><path d="M8.71,64.84H0V56.12H8.71Zm-7-1.71H7V57.82H1.7Z"/><rect x="0.85" y="63.99" width="7.01" height="7.01"/><path d="M8.71,71.85H0V63.13H8.71Zm-7-1.7H7V64.84H1.7Z"/><rect x="0.85" y="71" width="7.01" height="7.01"/><path d="M8.71,78.87H0V70.15H8.71Zm-7-1.71H7V71.85H1.7Z"/><rect x="0.85" y="78.01" width="7.01" height="7.01"/><path d="M8.71,85.88H0V77.16H8.71Zm-7-1.7H7V78.87H1.7Z"/><rect x="7.86" y="7.87" width="7.01" height="7.01"/><path d="M15.72,15.73H7V7h8.71Zm-7-1.7H14V8.72H8.71Z"/><rect x="7.86" y="85.03" width="7.01" height="7.01"/><path d="M15.72,92.9H7V84.18h8.71Zm-7-1.71H14V85.88H8.71Z"/><rect x="14.87" y="0.85" width="7.01" height="7.01"/><path d="M22.73,8.72H14V0h8.71ZM15.72,7H21V1.7H15.72Z"/><rect x="21.88" y="0.85" width="7.01" height="7.01"/><path d="M29.74,8.72H21V0h8.71ZM22.73,7H28V1.7h-5.3Z"/><rect x="28.89" y="0.85" width="7.01" height="7.01"/><path d="M36.75,8.72H28V0h8.72ZM29.74,7H35V1.7h-5.3Z"/><rect x="35.89" y="0.85" width="7.01" height="7.01"/><path d="M43.75,8.72H35V0h8.71ZM36.75,7h5.3V1.7h-5.3Z"/><rect x="42.9" y="0.85" width="7.01" height="7.01"/><path d="M50.76,8.72H42.05V0h8.71ZM43.75,7h5.31V1.7H43.75Z"/><rect x="49.91" y="0.85" width="7.01" height="7.01"/><path d="M57.77,8.72H49.06V0h8.71ZM50.76,7h5.31V1.7H50.76Z"/><rect x="56.92" y="0.85" width="7.01" height="7.01"/><path d="M64.78,8.72H56.07V0h8.71ZM57.77,7h5.31V1.7H57.77Z"/><rect x="63.93" y="0.85" width="7.01" height="7.01"/><path d="M71.79,8.72H63.08V0h8.71ZM64.78,7h5.3V1.7h-5.3Z"/><rect x="70.94" y="0.85" width="7.01" height="7.01"/><path d="M78.8,8.72H70.08V0H78.8ZM71.79,7h5.3V1.7h-5.3Z"/><rect x="77.95" y="0.85" width="7.01" height="7.01"/><path d="M85.81,8.72H77.09V0h8.72ZM78.8,7h5.3V1.7H78.8Z"/><rect x="84.95" y="0.85" width="7.01" height="7.01"/><path d="M92.81,8.72H84.1V0h8.71ZM85.81,7h5.3V1.7h-5.3Z"/><rect x="91.96" y="0.85" width="7.01" height="7.01"/><path d="M99.82,8.72H91.11V0h8.71ZM92.81,7h5.31V1.7H92.81Z"/><rect x="98.97" y="0.85" width="7.01" height="7.01"/><path d="M106.83,8.72H98.12V0h8.71ZM99.82,7h5.31V1.7H99.82Z"/><rect x="105.98" y="0.85" width="7.01" height="7.01"/><path d="M113.84,8.72h-8.71V0h8.71Zm-7-1.71h5.31V1.7h-5.31Z"/><rect x="112.99" y="0.85" width="7.01" height="7.01"/><path d="M120.85,8.72h-8.71V0h8.71Zm-7-1.71h5.3V1.7h-5.3Z"/><rect x="120" y="0.85" width="7.01" height="7.01"/><path d="M127.86,8.72h-8.72V0h8.72Zm-7-1.71h5.3V1.7h-5.3Z"/><rect x="127" y="0.85" width="7.01" height="7.01"/><path d="M134.86,8.72h-8.71V0h8.71Zm-7-1.71h5.3V1.7h-5.3Z"/><rect x="134.01" y="0.85" width="7.01" height="7.01"/><path d="M141.87,8.72h-8.71V0h8.71Zm-7-1.71h5.31V1.7h-5.31Z"/><rect x="141.02" y="0.85" width="7.01" height="7.01"/><path d="M148.88,8.72h-8.71V0h8.71Zm-7-1.71h5.31V1.7h-5.31Z"/><rect x="148.03" y="0.85" width="7.01" height="7.01"/><path d="M155.89,8.72h-8.71V0h8.71Zm-7-1.71h5.31V1.7h-5.31Z"/><rect x="155.04" y="0.85" width="7.01" height="7.01"/><path d="M162.9,8.72h-8.71V0h8.71Zm-7-1.71h5.3V1.7h-5.3Z"/><rect x="162.05" y="0.85" width="7.01" height="7.01"/><path d="M169.91,8.72h-8.72V0h8.72ZM162.9,7h5.3V1.7h-5.3Z"/><rect x="169.06" y="0.85" width="7.01" height="7.01"/><path d="M176.92,8.72H168.2V0h8.72Zm-7-1.71h5.3V1.7h-5.3Z"/><rect x="176.06" y="0.85" width="7.01" height="7.01"/><path d="M183.92,8.72h-8.71V0h8.71Zm-7-1.71h5.3V1.7h-5.3Z"/><rect x="183.07" y="0.85" width="7.01" height="7.01"/><path d="M190.93,8.72h-8.71V0h8.71Zm-7-1.71h5.31V1.7h-5.31Z"/><rect x="190.08" y="0.85" width="7.01" height="7.01"/><path d="M197.94,8.72h-8.71V0h8.71Zm-7-1.71h5.31V1.7h-5.31Z"/><rect x="197.09" y="0.85" width="7.01" height="7.01"/><path d="M205,8.72h-8.71V0H205Zm-7-1.71h5.31V1.7h-5.31Z"/><rect x="204.1" y="0.85" width="7.01" height="7.01"/><path d="M212,8.72h-8.71V0H212ZM205,7h5.3V1.7H205Z"/><rect x="211.11" y="0.85" width="7.01" height="7.01"/><path d="M219,8.72h-8.72V0H219ZM212,7h5.3V1.7H212Z"/><rect x="218.11" y="0.85" width="7.01" height="7.01"/><path d="M226,8.72h-8.71V0H226ZM219,7h5.3V1.7H219Z"/><rect x="127" y="92.04" width="7.01" height="7.01"/><path d="M134.86,99.91h-8.71V91.19h8.71Zm-7-1.7h5.3V92.9h-5.3Z"/><rect x="127" y="99.06" width="7.01" height="7.01"/><path d="M134.86,106.93h-8.71V98.21h8.71Zm-7-1.71h5.3V99.91h-5.3Z"/><rect x="127" y="106.07" width="7.01" height="7.01"/><path d="M134.86,113.94h-8.71v-8.72h8.71Zm-7-1.7h5.3v-5.31h-5.3Z"/><rect x="134.01" y="113.09" width="7.01" height="7.01"/><path d="M141.87,121h-8.71v-8.72h8.71Zm-7-1.71h5.31v-5.31h-5.31Z"/><rect x="141.02" y="120.1" width="7.01" height="7.01"/><path d="M148.88,128h-8.71v-8.72h8.71Zm-7-1.7h5.31V121h-5.31Z"/><rect x="148.03" y="127.12" width="7.01" height="7.01"/><path d="M155.89,135h-8.71v-8.72h8.71Zm-7-1.71h5.31V128h-5.31Z"/><rect x="155.04" y="92.04" width="7.01" height="7.01"/><path d="M162.9,99.91h-8.71V91.19h8.71Zm-7-1.7h5.3V92.9h-5.3Z"/><rect x="155.04" y="99.06" width="7.01" height="7.01"/><path d="M162.9,106.93h-8.71V98.21h8.71Zm-7-1.71h5.3V99.91h-5.3Z"/><rect x="155.04" y="106.07" width="7.01" height="7.01"/><path d="M162.9,113.94h-8.71v-8.72h8.71Zm-7-1.7h5.3v-5.31h-5.3Z"/><rect x="155.04" y="127.12" width="7.01" height="7.01"/><path d="M162.9,135h-8.71v-8.72h8.71Zm-7-1.71h5.3V128h-5.3Z"/><rect x="162.05" y="92.04" width="7.01" height="7.01"/><path d="M169.91,99.91h-8.72V91.19h8.72Zm-7-1.7h5.3V92.9h-5.3Z"/><rect x="162.05" y="113.09" width="7.01" height="7.01"/><path d="M169.91,121h-8.72v-8.72h8.72Zm-7-1.71h5.3v-5.31h-5.3Z"/><rect x="162.05" y="120.1" width="7.01" height="7.01"/><path d="M169.91,128h-8.72v-8.72h8.72Zm-7-1.7h5.3V121h-5.3Z"/><rect x="162.05" y="127.12" width="7.01" height="7.01"/><path d="M169.91,135h-8.72v-8.72h8.72Zm-7-1.71h5.3V128h-5.3Z"/><rect x="169.06" y="92.04" width="7.01" height="7.01"/><path d="M176.92,99.91H168.2V91.19h8.72Zm-7-1.7h5.3V92.9h-5.3Z"/><rect x="169.06" y="134.13" width="7.01" height="7.01"/><path d="M176.92,142H168.2v-8.72h8.72Zm-7-1.7h5.3V135h-5.3Z"/><rect x="176.06" y="92.04" width="7.01" height="7.01"/><path d="M183.92,99.91h-8.71V91.19h8.71Zm-7-1.7h5.3V92.9h-5.3Z"/><rect x="183.07" y="92.04" width="7.01" height="7.01"/><path d="M190.93,99.91h-8.71V91.19h8.71Zm-7-1.7h5.31V92.9h-5.31Z"/><rect x="190.08" y="92.04" width="7.01" height="7.01"/><path d="M197.94,99.91h-8.71V91.19h8.71Zm-7-1.7h5.31V92.9h-5.31Z"/><rect x="197.09" y="92.04" width="7.01" height="7.01"/><path d="M205,99.91h-8.71V91.19H205Zm-7-1.7h5.31V92.9h-5.31Z"/><rect x="204.1" y="92.04" width="7.01" height="7.01"/><path d="M212,99.91h-8.71V91.19H212Zm-7-1.7h5.3V92.9H205Z"/><rect x="211.11" y="92.04" width="7.01" height="7.01"/><path d="M219,99.91h-8.72V91.19H219Zm-7-1.7h5.3V92.9H212Z"/><rect x="218.11" y="92.04" width="7.01" height="7.01"/><path d="M226,99.91h-8.71V91.19H226Zm-7-1.7h5.3V92.9H219Z"/><rect x="225.12" y="92.04" width="7.01" height="7.01"/><path d="M233,99.91h-8.71V91.19H233Zm-7-1.7h5.31V92.9H226Z"/><rect x="232.13" y="85.03" width="7.01" height="7.01"/><path d="M240,92.9h-8.71V84.18H240Zm-7-1.71h5.31V85.88H233Z"/><rect x="225.12" y="0.85" width="7.01" height="7.01"/><path d="M233,8.72h-8.71V0H233ZM226,7h5.31V1.7H226Z"/><rect x="232.13" y="7.87" width="7.01" height="7.01"/><path d="M240,15.73h-8.71V7H240ZM233,14h5.31V8.72H233Z"/><rect x="239.14" y="14.88" width="7.01" height="7.01"/><path d="M247,22.75h-8.71V14H247ZM240,21h5.31V15.73H240Z"/><rect x="239.14" y="21.9" width="7.01" height="7.01"/><path d="M247,29.76h-8.71V21H247Zm-7-1.7h5.31V22.75H240Z"/><rect x="239.14" y="28.91" width="7.01" height="7.01"/><path d="M247,36.78h-8.71V28.06H247Zm-7-1.71h5.31V29.76H240Z"/><rect x="239.14" y="35.93" width="7.01" height="7.01"/><path d="M247,43.79h-8.71V35.07H247Zm-7-1.7h5.31V36.78H240Z"/><rect x="239.14" y="42.94" width="7.01" height="7.01"/><path d="M247,50.81h-8.71V42.09H247Zm-7-1.71h5.31V43.79H240Z"/><rect x="239.14" y="49.96" width="7.01" height="7.01"/><path d="M247,57.82h-8.71V49.1H247Zm-7-1.7h5.31V50.81H240Z"/><rect x="239.14" y="56.97" width="7.01" height="7.01"/><path d="M247,64.84h-8.71V56.12H247Zm-7-1.71h5.31V57.82H240Z"/><rect x="239.14" y="63.99" width="7.01" height="7.01"/><path d="M247,71.85h-8.71V63.13H247Zm-7-1.7h5.31V64.84H240Z"/><rect x="239.14" y="71" width="7.01" height="7.01"/><path d="M247,78.87h-8.71V70.15H247Zm-7-1.71h5.31V71.85H240Z"/><rect x="239.14" y="78.01" width="7.01" height="7.01"/><path d="M247,85.88h-8.71V77.16H247Zm-7-1.7h5.31V78.87H240Z"/><text class="cls-2" transform="translate(-0.74 139.42)">FREE</text></svg>