<?xml version="1.0" encoding="utf-8"?>
<!-- Generator: Adobe Illustrator 25.1.0, SVG Export Plug-In . SVG Version: 6.00 Build 0)  -->
<svg version="1.1" id="Слой_1" xmlns="http://www.w3.org/2000/svg" xmlns:xlink="http://www.w3.org/1999/xlink" x="0px" y="0px"
	 viewBox="0 0 950 501" style="enable-background:new 0 0 950 501;" xml:space="preserve">
<style type="text/css">
	.st0{fill-rule:evenodd;clip-rule:evenodd;fill:#FEE600;}
	.st1{fill-rule:evenodd;clip-rule:evenodd;fill:#FFFFFF;}
	.st2{fill-rule:evenodd;clip-rule:evenodd;}
	.st3{fill-rule:evenodd;clip-rule:evenodd;fill:#FFFFFF;stroke:#000000;stroke-width:1.7007;stroke-miterlimit:22.9256;}
</style>
<image style="overflow:visible;" width="950" height="501" xlink:href="bg_header_old.png" >
</image>
<rect class="st0" width="950" height="501"/>
<ellipse transform="matrix(0.2871 -0.9579 0.9579 0.2871 259.475 778.4933)" class="st1" cx="652.8" cy="214.9" rx="107.4" ry="107.4"/>
<g>
	<rect x="50" y="101" class="st2" width="19" height="8"/>
	<rect x="86" y="101" class="st2" width="19" height="8"/>
	<rect x="73" y="80" class="st2" width="9" height="17"/>
	<rect x="73" y="113" class="st2" width="9" height="17"/>
</g>
<g>
	<rect x="760" y="439" class="st2" width="19" height="8"/>
	<rect x="795" y="439" class="st2" width="19" height="8"/>
	<rect x="783" y="419" class="st2" width="8" height="17"/>
	<rect x="783" y="450" class="st2" width="8" height="17"/>
</g>
<g>
	<rect x="868" y="329" class="st2" width="13" height="5"/>
	<rect x="893" y="329" class="st2" width="13" height="5"/>
	<rect x="884" y="314" class="st2" width="6" height="12"/>
	<rect x="884" y="336" class="st2" width="6" height="12"/>
</g>
<g>
	<rect x="868" y="88" class="st2" width="13" height="5"/>
	<rect x="893" y="88" class="st2" width="13" height="5"/>
	<rect x="884" y="73" class="st2" width="6" height="12"/>
	<rect x="884" y="95" class="st2" width="6" height="12"/>
</g>
<g>
	<polygon class="st3" points="725.2,278.6 732.4,276 805.2,276 812.3,280.5 798.2,293.1 805.1,300.5 817.2,304.3 827,310.1 
		817.1,321 792.9,312.7 789,316.5 789,332.6 784.7,336.8 	"/>
	<path class="st2" d="M750.5,310.7l34.4,34.5l3.8-4c2.1-2.2,3.9-4,3.9-4.1c0-0.1-0.8-1-1.8-2.1c-1-1.1-1.8-2-1.9-2.1
		c0-0.1,0.8-1,1.8-2l1.9-1.9l-1.5-1.6c-1.6-1.7-1.8-2.1-1.6-2.7c0.1-0.2,0.9-1.1,1.8-2.1l1.6-1.7l-2-2l-2-2l1.9-1.9l1.9-1.9l4,4l4,4
		l2-2l2-2l4,4l4,4l0.8-0.8c0.4-0.4,1.3-1.4,2-2.1l1.2-1.3l-3.9-3.9l-3.9-3.9l-0.6,0.4c-0.3,0.3-1,0.9-1.5,1.4
		c-0.5,0.5-1.2,1.2-1.6,1.5l-0.7,0.5l-3.9-4l-3.9-4l-2.1,2.1l-2.1,2.1l-2.1-2.1l-2.1-2.1l-1.9,1.9l-1.9,1.9l2.1,2.1l2.1,2.1
		l-2.1,2.1l-2.1,2.1l1.9,1.9l1.9,1.9l-1.9,1.9l-1.9,1.9l2,2l2,2l-2.1,2.1l-2.1,2.1l-28.2-28.3c-15.5-15.6-28.2-28.3-28.2-28.4
		c0,0,0.9-1,2.1-2.1l2.1-2l2,2l2,2l1.9-1.9l1.9-1.9l1.9,1.9l1.9,1.9l2.1-2.1l2.1-2.1l2.1,2.1l2.1,2.1l1.9-1.9l1.9-1.9l-2.1-2.1
		l-2.1-2.1l-1.9,1.9l-1.9,1.9l-1.9-1.9l-1.9-1.9l-2.1,2.1l-2.1,2.1l-2-2l-2-2l-1.9,1.9l-1.9,1.9l-2-2l-2-2l-2.1,2.1l-2.1,2.1l-2-2
		l-2-2l-1.9,1.9l-1.9,1.9L750.5,310.7z"/>
	<path class="st2" d="M757.1,276.7c0.3,0.3,1.1,1.2,1.8,2.1l1.4,1.5l2-2l2-2l2.1,2l2.1,2l2.1-2l2.1-2l1.9,1.9l1.9,1.9l1.9-1.9
		l1.9-1.9l-1.9-1.9l-1.9-1.9l-1.9,1.9l-1.9,1.9l-0.3-0.2c-0.8-0.5-2.3-1.8-3.2-2.7l-1-1l-2,2l-2,2l-1.9-1.9l-1.9-1.9l-1.9,1.9
		l-1.9,1.9L757.1,276.7z"/>
	<path class="st2" d="M780.9,276.6c0.1,0.1,0.9,1,1.9,2l1.9,1.8l2.1-2.1l2.1-2.1l2.1,2.1l2.1,2.1l1.5-1.6c1.7-1.9,2-2.2,1.8-2.5
		c-0.1-0.1-0.9-1.1-1.9-2.1l-1.8-1.9l-2,2l-2,2l-1.9-1.9l-1.9-1.9l-2,2C781.3,275.9,780.8,276.4,780.9,276.6z"/>
	<path class="st2" d="M798.8,278.4l1.9,1.9l2.1-2.1l2.1-2.1l2.1,2.1l2.1,2.1l-8.1,8.1l-8.1,8.1l4,4l4,4l1.9-1.9l1.9-1.9l4,4l4,4
		l2.1-2.1l2.1-2.1l4,4l4,4l-4.2,4.2l-4.2,4.2l0.5,0.4c1.2,0.9,2.4,1.9,3.2,2.7l0.8,0.8l4-4l4-4l-2.1-2.1l-2.1-2.1l1.9-1.9l1.9-1.9
		l-4-4l-4-4l-1.9,1.9l-1.9,1.9l-4-4l-4-4l-2.1,2.1l-2.1,2.1l-1.2-1.3c-1.7-1.9-2.3-2.7-2.4-3c0-0.2,1-1.4,7.8-8.2l7.8-7.9l-4-4l-4-4
		l-1.9,1.9l-1.9,1.9l-1.9-1.9l-1.9-1.9l-2.1,2.1l-2.1,2.1L798.8,278.4L798.8,278.4z"/>
</g>
<g>
	<polygon class="st2" points="120,328 98,328 98,336 128,336 128,306 120,306 	"/>
	<polygon class="st2" points="46,284 54,284 54,262 76,262 76,254 46,254 	"/>
	<path class="st2" d="M98,306v-7h-7.4c0-1.1,0.3-6.9-0.2-7.4s-6.3-0.2-7.4-0.2V284h-8v8h7c0,1.1-0.3,6.5,0.2,6.9
		c0.5,0.4,6.6,0.1,7.8,0.1v6.9H98z"/>
	<path class="st2" d="M98,306v8h7.8c0,1.2-0.3,7.4,0.2,7.8c0.3,0.3,7.6,0.3,7.9,0c0.5-0.5,0.1-7.7,0.1-7.7c-0.3-0.6-6.9-0.3-7.9-0.3
		V306H98z"/>
	<path class="st2" d="M76,284v-8h-7.8c0-1.2,0.3-7.4-0.2-7.8c-0.3-0.3-7.6-0.3-7.9,0c-0.5,0.5-0.1,7.7-0.1,7.7
		c0.3,0.6,6.9,0.3,7.9,0.3v7.8H76z"/>
</g>
<g>
	<polygon class="st2" points="863,198 848,198 848,203 868,203 868,183 863,183 	"/>
	<polygon class="st2" points="812,167 817,167 817,152 832,152 832,147 812,147 	"/>
	<path class="st2" d="M847,182v-5h-4.9c0-0.8,0.2-4.7-0.1-5c-0.3-0.3-4.2-0.1-5-0.1V167h-5v5h5c0,0.8-0.2,4.7,0.1,5
		c0.3,0.3,4.2,0.1,4.9,0.1v4.9H847z"/>
	<path class="st2" d="M848,182v5h4.9c0,0.7-0.2,4.6,0.1,4.9c0.2,0.2,4.7,0.2,4.9,0c0.3-0.3,0.1-4.8,0-4.8c-0.2-0.3-4.3-0.2-4.9-0.2
		V182H848z"/>
	<path class="st2" d="M832,167v-5h-4.9c0-0.7,0.2-4.6-0.1-4.9c-0.2-0.2-4.7-0.2-4.9,0c-0.3,0.3-0.1,4.8-0.1,4.8
		c0.2,0.3,4.3,0.2,4.9,0.2v4.9H832z"/>
</g>
<g>
	<rect x="180" y="272" class="st2" width="17" height="7"/>
	<rect x="211" y="272" class="st2" width="17" height="7"/>
	<rect x="200" y="254" class="st2" width="8" height="15"/>
	<rect x="200" y="282" class="st2" width="8" height="15"/>
</g>
<g>
	<path class="st1" d="M527.3,175.8c-0.2,0-0.4,0-0.6-0.1L486,161c-0.4-0.2-0.8-0.5-1-0.9c-0.2-0.4-0.2-0.9-0.1-1.3l14.7-40.7
		c0.2-0.7,0.9-1.1,1.6-1.1c0.2,0,0.4,0,0.6,0.1l6.7,2.4c-0.7,2.5-0.5,5.2,0.6,7.6c1.2,2.6,3.4,4.6,6.1,5.5c1.2,0.4,2.4,0.6,3.6,0.6
		c4.3,0,8.2-2.6,9.9-6.5l13.8,5c0.9,0.3,1.3,1.3,1,2.2l-6.6,21.1l0.8,0.2c0.6,0.1,1.3,0.2,2.2,0.3c3.2,0.4,8,0.9,9.6,3.6
		c0.8,1.3,0.7,3.2-0.2,5.4c-1.4,3.5-3.4,5.2-6.1,5.2c-3.1,0-6.5-2.4-8.3-3.6c-0.6-0.4-1-0.7-1.3-0.8l-0.7-0.4l-4.1,9.8
		C528.7,175.3,528,175.8,527.3,175.8z"/>
	<path class="st1" d="M501.3,117.7L501.3,117.7c0.1,0,0.2,0,0.3,0.1l6,2.2c-0.6,2.5-0.3,5.1,0.8,7.5c1.3,2.8,3.6,4.9,6.5,5.9
		c1.3,0.5,2.6,0.7,3.9,0.7c4.4,0,8.3-2.5,10.3-6.3l13.2,4.8c0.2,0.1,0.4,0.3,0.6,0.5c0.1,0.2,0.1,0.5,0,0.7l0,0l0,0l-6.4,20.3
		l-0.5,1.5l1.6,0.3c0.6,0.1,1.4,0.2,2.2,0.3c3,0.3,7.7,0.8,9.1,3.2c0.7,1.1,0.6,2.8-0.2,4.8c-1.3,3.2-3.1,4.8-5.4,4.8
		c-2.9,0-6.2-2.3-7.9-3.5c-0.6-0.4-1-0.7-1.4-0.9l-1.4-0.7l-0.6,1.4l-3.8,9.1l0,0l0,0c-0.1,0.4-0.5,0.6-0.9,0.6
		c-0.1,0-0.2,0-0.3-0.1l-40.7-14.7c-0.5-0.2-0.8-0.8-0.6-1.3l14.7-40.7C500.5,118,500.8,117.7,501.3,117.7L501.3,117.7z
		 M501.3,116.3c-1,0-1.9,0.6-2.3,1.6l-14.7,40.7c-0.5,1.2,0.2,2.6,1.4,3.1l40.7,14.7c0.3,0.1,0.5,0.1,0.8,0.1c1,0,1.9-0.6,2.3-1.6
		l3.8-9.1c1.2,0.6,5.6,4.6,9.9,4.6c2.5,0,5-1.4,6.7-5.7c4-9.9-8.4-9.5-12.2-10.3l6.4-20.3c0.4-1.2-0.2-2.6-1.4-3.1l-14.5-5.2
		c0,0,0,0,0,0c-1.5,4.1-5.3,6.7-9.5,6.7c-1.1,0-2.3-0.2-3.4-0.6c-5.2-1.9-7.9-7.6-6.1-12.9c0,0,0,0,0,0l-7.3-2.6
		C501.8,116.3,501.5,116.3,501.3,116.3z"/>
	<path class="st1" d="M517,143c-5.4,0-10.8-2.8-13.6-6.9c-1.4-2-2.6-5.3-1-9.3c0.7-1.6,1.6-2.9,2.7-3.9l1-0.8l-5.4-2
		c-0.9-0.3-1.3-1.3-1-2.2l14.7-40.7c0.2-0.7,0.9-1.1,1.6-1.1c0.2,0,0.4,0,0.6,0.1l40.4,14.6c-0.1,1.8-3.7,9.8-4.8,12.3
		c-4.5-1.9-7.9-2.8-10.6-2.8c-4.2,0-6.9,2.2-8.3,6.7c-1,3.3-0.7,6.1,0.9,8.3c3.1,4.2,10.2,4.9,12.9,5l-3.4,13.5
		c-0.2,0.7-0.9,1.1-1.6,1.1c-0.2,0-0.4,0-0.6-0.1l-11.4-4.2l-0.2,0.8C528.4,138.8,523.8,143,517,143L517,143z"/>
	<path class="st1" d="M515.9,76.4c0.1,0,0.2,0,0.3,0.1l39.8,14.3c-0.5,2.2-3.1,8.1-4.4,11c-4.3-1.8-7.6-2.6-10.3-2.6
		c-4.5,0-7.5,2.4-9,7.2c-1.1,3.6-0.8,6.6,1,9c3,4.1,9.3,5,12.6,5.2l-3.2,12.6c-0.2,0.4-0.5,0.6-0.9,0.6c-0.1,0-0.2,0-0.3-0.1
		l-10.6-3.9l-1.6-0.6l-0.3,1.6c-0.7,3.7-2.3,6.6-4.7,8.5c-2,1.6-4.6,2.5-7.5,2.5c-5.1,0-10.4-2.7-13-6.6c-1.3-1.9-2.5-4.9-0.9-8.7
		c0.6-1.5,1.5-2.7,2.5-3.6l1.9-1.6l-2.4-0.8l-4.2-1.5c-0.5-0.2-0.8-0.8-0.6-1.3L515,77.1C515.2,76.7,515.5,76.4,515.9,76.4
		L515.9,76.4z M515.9,74.8c-1,0-1.9,0.6-2.3,1.6L499,117.1c-0.4,1.2,0.2,2.6,1.4,3.1l4.2,1.5c-1.3,1.1-2.2,2.5-2.9,4.1
		c-3.8,9.2,6,17.2,15.2,17.2c6,0,11.8-3.4,13.6-12.1l10.6,3.9c0.3,0.1,0.5,0.1,0.8,0.1c1,0,1.9-0.6,2.3-1.6l3.6-14.4h0h-0.1
		c-1.6,0-17.7-0.2-13.9-12.4c1.3-4.3,3.8-6.2,7.6-6.2c2.9,0,6.5,1.1,11,3.1c0,0,6.3-13.4,5-13.8l-40.7-14.7
		C516.5,74.8,516.2,74.8,515.9,74.8z"/>
	<path class="st1" d="M613.8,100.4c-0.4,0-0.8-0.1-1.1-0.4l-33.5-27.4c-0.7-0.6-0.8-1.7-0.2-2.4l4.5-5.5c1.8,1.3,4,2,6.3,2
		c3.2,0,6.3-1.4,8.3-3.9c3.6-4.4,3.1-10.9-1-14.7l9.3-11.4c0.3-0.4,0.8-0.6,1.3-0.6c0.4,0,0.8,0.1,1.1,0.4l13.8,11.3l0.2-1.2
		c0.2-1.6,0.9-3,1.9-4.3c1.7-2.1,4.2-3.3,6.9-3.3c2.1,0,4.1,0.7,5.6,2c3.8,3.1,4.4,8.7,1.2,12.5c-1,1.2-2.3,2.2-3.8,2.7l-1.2,0.4
		l8.8,7.2c0.7,0.6,0.8,1.7,0.2,2.4l-27.4,33.5C614.8,100.2,614.3,100.4,613.8,100.4z"/>
	<path class="st1" d="M455.6,139.1c0.1,0.4,0.1,0.8-0.1,1.1l-16.8,39.9c-0.4,0.9-1.4,1.3-2.2,0.9l-6.5-2.7c0.7-2.1,0.8-4.4,0.2-6.6
		c-0.9-3.1-3.2-5.6-6.1-6.9c-5.3-2.2-11.3,0.1-13.8,5.1l-13.5-5.7c-0.5-0.2-0.8-0.6-1-1.1c-0.1-0.4-0.1-0.8,0.1-1.1l6.9-16.4
		l-1.2,0.2c-1.6,0.2-3.2,0-4.6-0.6c-2.5-1-4.3-3.1-5.1-5.7c-0.6-2-0.5-4.1,0.3-6c1.9-4.5,7.1-6.7,11.7-4.8c1.5,0.6,2.7,1.6,3.7,2.9
		l0.7,1l4.4-10.5c0.4-0.9,1.4-1.3,2.2-0.9l39.9,16.8C455.1,138.2,455.4,138.6,455.6,139.1z"/>
</g>
<path class="st1" d="M756.3,133.8c-0.5,0-1-0.2-1.4-0.5L710.6,97c-1-0.8-1.1-2.2-0.3-3.2l5.9-7.2c2.4,1.7,5.3,2.7,8.3,2.7
	c4.3,0,8.3-1.9,11-5.2c4.8-5.9,4.2-14.4-1.3-19.5l12.3-15c0.4-0.5,1.1-0.8,1.7-0.8c0.5,0,1,0.2,1.4,0.5L768,64.1l0.3-1.6
	c0.3-2.1,1.2-4,2.5-5.7c2.2-2.7,5.6-4.3,9.1-4.3c2.7,0,5.4,1,7.5,2.7c5,4.1,5.8,11.6,1.6,16.6c-1.3,1.6-3.1,2.9-5.1,3.6l-1.6,0.6
	l11.7,9.6c1,0.8,1.1,2.2,0.3,3.2L758.1,133C757.6,133.5,757,133.8,756.3,133.8z"/>
<path class="st0" d="M660.2,203c-5.4,0-10.8-2.8-13.6-6.9c-1.4-2-2.6-5.3-1-9.3c0.7-1.6,1.6-2.9,2.7-3.9l1-0.8l-5.4-2
	c-0.9-0.3-1.3-1.3-1-2.2l14.7-40.7c0.2-0.7,0.9-1.1,1.6-1.1c0.2,0,0.4,0,0.6,0.1l40.4,14.6c-0.1,1.8-3.7,9.8-4.8,12.3
	c-4.5-1.9-7.9-2.8-10.6-2.8c-4.2,0-6.9,2.2-8.3,6.7c-1,3.3-0.7,6.1,0.9,8.3c3.1,4.2,10.2,4.9,12.9,5l-3.4,13.5
	c-0.2,0.7-0.9,1.1-1.6,1.1c-0.2,0-0.4,0-0.6-0.1l-11.4-4.2l-0.2,0.8C671.6,198.8,666.9,203,660.2,203L660.2,203z"/>
</svg>
